<svg width="20" height="21" viewBox="0 0 20 21" fill="none" xmlns="http://www.w3.org/2000/svg">
<path d="M14.8438 3.00024H5.15625C4.49384 3.0023 3.85915 3.26636 3.39076 3.73475C2.92236 4.20315 2.65831 4.83784 2.65625 5.50024V17.3752C2.65625 17.7068 2.78795 18.0247 3.02237 18.2591C3.25679 18.4935 3.57473 18.6252 3.90625 18.6252H5.78125C6.11277 18.6252 6.43071 18.4935 6.66513 18.2591C6.89955 18.0247 7.03125 17.7068 7.03125 17.3752V16.1252H12.9688V17.3752C12.9688 17.7068 13.1004 18.0247 13.3349 18.2591C13.5693 18.4935 13.8872 18.6252 14.2188 18.6252H16.0938C16.4253 18.6252 16.7432 18.4935 16.9776 18.2591C17.2121 18.0247 17.3438 17.7068 17.3438 17.3752V5.50024C17.3417 4.83784 17.0776 4.20315 16.6092 3.73475C16.1408 3.26636 15.5062 3.0023 14.8438 3.00024ZM6.40625 13.6252C6.22083 13.6252 6.03957 13.5703 5.8854 13.4672C5.73123 13.3642 5.61107 13.2178 5.54011 13.0465C5.46916 12.8752 5.45059 12.6867 5.48676 12.5048C5.52294 12.323 5.61223 12.1559 5.74334 12.0248C5.87445 11.8937 6.0415 11.8044 6.22335 11.7683C6.40521 11.7321 6.59371 11.7507 6.76502 11.8216C6.93632 11.8926 7.08274 12.0127 7.18575 12.1669C7.28877 12.3211 7.34375 12.5023 7.34375 12.6877C7.34375 12.9364 7.24498 13.1748 7.06916 13.3507C6.89335 13.5265 6.65489 13.6252 6.40625 13.6252ZM13.5938 13.6252C13.4083 13.6252 13.2271 13.5703 13.0729 13.4672C12.9187 13.3642 12.7986 13.2178 12.7276 13.0465C12.6567 12.8752 12.6381 12.6867 12.6743 12.5048C12.7104 12.323 12.7997 12.1559 12.9308 12.0248C13.0619 11.8937 13.229 11.8044 13.4109 11.7683C13.5927 11.7321 13.7812 11.7507 13.9525 11.8216C14.1238 11.8926 14.2702 12.0127 14.3733 12.1669C14.4763 12.3211 14.5312 12.5023 14.5312 12.6877C14.5312 12.9364 14.4325 13.1748 14.2567 13.3507C14.0808 13.5265 13.8424 13.6252 13.5938 13.6252ZM16.0938 9.87524H3.90625V6.12524H16.0938V9.87524Z" fill="#EC7A4D"/>
</svg>
