<svg width="20" height="21" viewBox="0 0 20 21" fill="none" xmlns="http://www.w3.org/2000/svg">
<path d="M18.75 9.25025H17.9062L15.7344 4.36744C15.6371 4.14616 15.4773 3.95808 15.2747 3.82625C15.0721 3.69442 14.8355 3.62457 14.5938 3.62525H5.40625C5.16453 3.62457 4.92787 3.69442 4.72526 3.82625C4.52266 3.95808 4.36292 4.14616 4.26562 4.36744L2.09375 9.25025H1.25C1.08424 9.25025 0.925268 9.3161 0.808058 9.43331C0.690848 9.55052 0.625 9.70949 0.625 9.87525C0.625 10.041 0.690848 10.2 0.808058 10.3172C0.925268 10.4344 1.08424 10.5002 1.25 10.5002H1.875V16.7502C1.875 17.0818 2.0067 17.3997 2.24112 17.6341C2.47554 17.8686 2.79348 18.0002 3.125 18.0002H5C5.33152 18.0002 5.64946 17.8686 5.88388 17.6341C6.1183 17.3997 6.25 17.0818 6.25 16.7502V15.5002H13.75V16.7502C13.75 17.0818 13.8817 17.3997 14.1161 17.6341C14.3505 17.8686 14.6685 18.0002 15 18.0002H16.875C17.2065 18.0002 17.5245 17.8686 17.7589 17.6341C17.9933 17.3997 18.125 17.0818 18.125 16.7502V10.5002H18.75C18.9158 10.5002 19.0747 10.4344 19.1919 10.3172C19.3092 10.2 19.375 10.041 19.375 9.87525C19.375 9.70949 19.3092 9.55052 19.1919 9.43331C19.0747 9.3161 18.9158 9.25025 18.75 9.25025ZM6.25 13.0002H5C4.83424 13.0002 4.67527 12.9344 4.55806 12.8172C4.44085 12.7 4.375 12.541 4.375 12.3752C4.375 12.2095 4.44085 12.0505 4.55806 11.9333C4.67527 11.8161 4.83424 11.7502 5 11.7502H6.25C6.41576 11.7502 6.57473 11.8161 6.69194 11.9333C6.80915 12.0505 6.875 12.2095 6.875 12.3752C6.875 12.541 6.80915 12.7 6.69194 12.8172C6.57473 12.9344 6.41576 13.0002 6.25 13.0002ZM13.75 13.0002C13.5842 13.0002 13.4253 12.9344 13.3081 12.8172C13.1908 12.7 13.125 12.541 13.125 12.3752C13.125 12.2095 13.1908 12.0505 13.3081 11.9333C13.4253 11.8161 13.5842 11.7502 13.75 11.7502H15C15.1658 11.7502 15.3247 11.8161 15.4419 11.9333C15.5592 12.0505 15.625 12.2095 15.625 12.3752C15.625 12.541 15.5592 12.7 15.4419 12.8172C15.3247 12.9344 15.1658 13.0002 15 13.0002H13.75Z" fill="#EC7A4D"/>
</svg>
