<svg width="31" height="27" viewBox="0 0 31 27" fill="none" xmlns="http://www.w3.org/2000/svg">
<path d="M0.5 26.7454L1.23724 21.5635C2.86295 21.6749 4.12949 21.3777 5.03686 20.672C5.94423 19.9662 6.54915 18.9818 6.85161 17.7188C7.15406 16.4558 7.21077 15.0257 7.02174 13.4284H0.5V0H13.0331V14.5428C13.0331 18.9261 11.9556 22.2321 9.80057 24.4609C7.68337 26.6897 4.58318 27.4512 0.5 26.7454ZM17.9669 26.7454L18.7042 21.5635C20.3299 21.6749 21.5964 21.3777 22.5038 20.672C23.4112 19.9662 24.0161 18.9818 24.3185 17.7188C24.621 16.4558 24.6777 15.0257 24.4887 13.4284H17.9669V0H30.5V14.5428C30.5 18.9261 29.4225 22.2321 27.2675 24.4609C25.1503 26.6897 22.0501 27.4512 17.9669 26.7454Z" fill="#EC7A4D"/>
</svg>
