<svg width="20" height="21" viewBox="0 0 20 21" fill="none" xmlns="http://www.w3.org/2000/svg">
<path d="M14.6875 2.37549H5.3125C4.65009 2.37755 4.0154 2.6416 3.54701 3.11C3.07861 3.57839 2.81456 4.21308 2.8125 4.87549V14.8755C2.81456 15.5379 3.07861 16.1726 3.54701 16.641C4.0154 17.1094 4.65009 17.3734 5.3125 17.3755H6.25L5.125 18.8755C5.02554 19.0081 4.98284 19.1748 5.00628 19.3389C5.02972 19.503 5.11739 19.651 5.25 19.7505C5.35735 19.8332 5.48949 19.8773 5.625 19.8755C5.72203 19.8755 5.81772 19.8529 5.90451 19.8095C5.99129 19.7661 6.06678 19.7031 6.125 19.6255L7.8125 17.3755H12.1875L13.875 19.6255C13.9332 19.7031 14.0087 19.7661 14.0955 19.8095C14.1823 19.8529 14.278 19.8755 14.375 19.8755C14.5105 19.8773 14.6426 19.8332 14.75 19.7505C14.8157 19.7012 14.871 19.6395 14.9128 19.5689C14.9546 19.4983 14.9821 19.4201 14.9937 19.3389C15.0053 19.2576 15.0008 19.1749 14.9804 19.0954C14.9601 19.0159 14.9242 18.9411 14.875 18.8755L13.75 17.3755H14.6875C15.3499 17.3734 15.9846 17.1094 16.453 16.641C16.9214 16.1726 17.1854 15.5379 17.1875 14.8755V4.87549C17.1854 4.21308 16.9214 3.57839 16.453 3.11C15.9846 2.6416 15.3499 2.37755 14.6875 2.37549ZM6.5625 14.8755C6.37708 14.8755 6.19582 14.8205 6.04165 14.7175C5.88748 14.6145 5.76732 14.4681 5.69636 14.2968C5.62541 14.1254 5.60684 13.9369 5.64301 13.7551C5.67919 13.5732 5.76848 13.4062 5.89959 13.2751C6.0307 13.144 6.19775 13.0547 6.3796 13.0185C6.56146 12.9823 6.74996 13.0009 6.92127 13.0719C7.09257 13.1428 7.23899 13.263 7.342 13.4171C7.44502 13.5713 7.5 13.7526 7.5 13.938C7.5 14.1866 7.40123 14.4251 7.22541 14.6009C7.0496 14.7767 6.81114 14.8755 6.5625 14.8755ZM9.375 9.87549H4.0625V6.75049H9.375V9.87549ZM13.4375 14.8755C13.2521 14.8755 13.0708 14.8205 12.9167 14.7175C12.7625 14.6145 12.6423 14.4681 12.5714 14.2968C12.5004 14.1254 12.4818 13.9369 12.518 13.7551C12.5542 13.5732 12.6435 13.4062 12.7746 13.2751C12.9057 13.144 13.0727 13.0547 13.2546 13.0185C13.4365 12.9823 13.625 13.0009 13.7963 13.0719C13.9676 13.1428 14.114 13.263 14.217 13.4171C14.32 13.5713 14.375 13.7526 14.375 13.938C14.375 14.1866 14.2762 14.4251 14.1004 14.6009C13.9246 14.7767 13.6861 14.8755 13.4375 14.8755ZM15.9375 9.87549H10.625V6.75049H15.9375V9.87549Z" fill="#EC7A4D"/>
</svg>
