<svg width="205" height="52" viewBox="0 0 205 52" fill="none" xmlns="http://www.w3.org/2000/svg">
<path d="M30.5258 4.83354H28.065C27.1802 4.83354 26.4629 5.55165 26.4629 6.43748V15.382C26.4629 16.2678 27.1802 16.9859 28.065 16.9859H30.5258C31.4106 16.9859 32.1278 16.2678 32.1278 15.382V6.43748C32.1278 5.55165 31.4106 4.83354 30.5258 4.83354Z" fill="#50AEA3"/>
<path d="M21.333 50.4518V41.9769H31.7464L22.7114 51.0226C22.199 51.5355 21.333 51.1743 21.333 50.4518Z" fill="#50AEA3"/>
<path d="M32.3093 41.4495H21.333V42.4683H31.2413L32.3093 41.4495Z" fill="#379086"/>
<path d="M34.5598 16.3718L19.5712 1.36556C18.734 0.527469 17.3557 0.527469 16.5186 1.36556L1.5299 16.3718C0.685567 17.2099 0 18.8716 0 20.0565V22.7008C7.91651 28.5891 17.7165 32.0716 28.332 32.0716C38.9475 32.0716 33.5568 31.8548 36.0825 31.443V20.0637C36.0825 18.8788 35.397 17.2171 34.5526 16.379L34.5598 16.3718Z" fill="#50AEA3"/>
<path d="M28.3398 34.4991C17.7243 34.4991 7.92432 31.0167 0.0078125 25.1284V39.4049C0.0078125 40.5898 0.982043 41.5651 2.16555 41.5651H33.9326C35.1161 41.5651 36.0903 40.5898 36.0903 39.4049V33.8633C33.5718 34.2752 30.9811 34.4919 28.3398 34.4919V34.4991Z" fill="#50AEA3"/>
<path d="M48.7791 26.9851V5.09038H57.7873C59.7265 5.09038 61.3842 5.40316 62.7605 6.02872C64.1576 6.65429 65.2315 7.55093 65.9821 8.71865C66.7328 9.88637 67.1082 11.273 67.1082 12.8786C67.1082 14.4843 66.7328 15.8709 65.9821 17.0386C65.2315 18.2064 64.1576 19.103 62.7605 19.7286C61.3842 20.3541 59.7265 20.6669 57.7873 20.6669H51.0312L52.8453 18.7589V26.9851H48.7791ZM52.8453 19.1968L51.0312 17.2263H57.5996C59.3929 17.2263 60.7378 16.851 61.6345 16.1003C62.552 15.3288 63.0107 14.2549 63.0107 12.8786C63.0107 11.4816 62.552 10.4077 61.6345 9.65699C60.7378 8.90632 59.3929 8.53098 57.5996 8.53098H51.0312L52.8453 6.52917V19.1968ZM80.3872 26.9851V21.2925L80.9502 21.9493H75.9457C73.652 21.9493 71.8483 21.4697 70.5346 20.5105C69.2417 19.5305 68.5953 18.123 68.5953 16.288C68.5953 14.3279 69.2835 12.8369 70.6597 11.8152C72.0568 10.7934 73.9126 10.2826 76.2272 10.2826H83.8904V26.9851H80.3872ZM68.3764 26.9851L72.8804 20.6044H76.8841L72.5677 26.9851H68.3764ZM80.3872 20.0414V12.5346L80.9502 13.5668H76.3523C75.1429 13.5668 74.2046 13.7961 73.5373 14.2549C72.8909 14.6928 72.5677 15.4122 72.5677 16.4131C72.5677 18.2898 73.7875 19.2281 76.2272 19.2281H80.9502L80.3872 20.0414ZM100.597 25.171V13.598H94.1853L94.0915 16.288C94.0498 17.2472 93.9872 18.1751 93.9038 19.0717C93.8204 19.9475 93.6848 20.7608 93.4972 21.5114C93.3095 22.2413 93.0384 22.846 92.6839 23.3256C92.3295 23.8052 91.8603 24.1179 91.2764 24.2639L87.3979 23.6696C88.0235 23.6696 88.5239 23.4715 88.8993 23.0753C89.2955 22.6583 89.5978 22.0953 89.8063 21.3863C90.0357 20.6565 90.2025 19.8328 90.3068 18.9153C90.4111 17.977 90.484 17.0074 90.5257 16.0065L90.7447 10.2826H104.507V25.171H100.597ZM86.8036 30.7072V23.6696H106.978V30.7072H103.319V26.9851H90.4319V30.7072H86.8036ZM117.914 27.2041C116.204 27.2041 114.682 26.8392 113.348 26.1093C112.013 25.3586 110.96 24.3369 110.188 23.0441C109.417 21.7512 109.031 20.2812 109.031 18.6338C109.031 16.9657 109.417 15.4956 110.188 14.2236C110.96 12.9308 112.013 11.9195 113.348 11.1896C114.682 10.4598 116.204 10.0949 117.914 10.0949C119.645 10.0949 121.178 10.4598 122.512 11.1896C123.867 11.9195 124.921 12.9204 125.671 14.1923C126.443 15.4643 126.828 16.9448 126.828 18.6338C126.828 20.2812 126.443 21.7512 125.671 23.0441C124.921 24.3369 123.867 25.3586 122.512 26.1093C121.178 26.8392 119.645 27.2041 117.914 27.2041ZM117.914 23.8573C118.873 23.8573 119.728 23.6488 120.479 23.2317C121.23 22.8147 121.814 22.21 122.231 21.4176C122.668 20.6252 122.887 19.6973 122.887 18.6338C122.887 17.5495 122.668 16.6216 122.231 15.8501C121.814 15.0577 121.23 14.453 120.479 14.0359C119.728 13.6189 118.884 13.4104 117.945 13.4104C116.986 13.4104 116.131 13.6189 115.381 14.0359C114.651 14.453 114.067 15.0577 113.629 15.8501C113.191 16.6216 112.972 17.5495 112.972 18.6338C112.972 19.6973 113.191 20.6252 113.629 21.4176C114.067 22.21 114.651 22.8147 115.381 23.2317C116.131 23.6488 116.976 23.8573 117.914 23.8573ZM130.691 26.9851V10.2826H134.788L141.513 22.137H139.887L146.956 10.2826H150.615L150.646 26.9851H147.112V14.4738L147.737 14.8805L141.482 25.2335H139.793L133.506 14.5989L134.257 14.4113V26.9851H130.691Z" fill="#34635B"/>
<path opacity="0.6" d="M50.7906 47.1114C50.149 47.1114 49.5555 47.0072 49.0101 46.7986C48.4728 46.5821 48.0036 46.2814 47.6026 45.8964C47.2096 45.5034 46.9008 45.0463 46.6763 44.525C46.4517 44.0037 46.3394 43.4302 46.3394 42.8047C46.3394 42.1791 46.4517 41.6057 46.6763 41.0844C46.9008 40.5631 47.2136 40.1099 47.6146 39.725C48.0156 39.332 48.4848 39.0312 49.0221 38.8227C49.5675 38.6062 50.161 38.4979 50.8026 38.4979C51.4522 38.4979 52.0497 38.6102 52.5951 38.8347C53.1485 39.0513 53.6176 39.3761 54.0026 39.8092L53.2206 40.5671C52.8998 40.2302 52.5389 39.9816 52.1379 39.8212C51.7369 39.6528 51.3079 39.5686 50.8507 39.5686C50.3775 39.5686 49.9364 39.6488 49.5274 39.8092C49.1264 39.9696 48.7775 40.1941 48.4808 40.4829C48.184 40.7716 47.9515 41.1164 47.783 41.5174C47.6226 41.9104 47.5424 42.3395 47.5424 42.8047C47.5424 43.2698 47.6226 43.7029 47.783 44.1039C47.9515 44.4969 48.184 44.8377 48.4808 45.1265C48.7775 45.4152 49.1264 45.6398 49.5274 45.8002C49.9364 45.9606 50.3775 46.0408 50.8507 46.0408C51.3079 46.0408 51.7369 45.9606 52.1379 45.8002C52.5389 45.6317 52.8998 45.3751 53.2206 45.0302L54.0026 45.7881C53.6176 46.2212 53.1485 46.55 52.5951 46.7746C52.0497 46.9992 51.4482 47.1114 50.7906 47.1114ZM58.0364 47.0874C57.3547 47.0874 56.7532 46.947 56.2319 46.6663C55.7186 46.3856 55.3176 46.0007 55.0289 45.5114C54.7482 45.0222 54.6079 44.4608 54.6079 43.8272C54.6079 43.1936 54.7442 42.6322 55.0169 42.143C55.2976 41.6538 55.6785 41.2728 56.1597 41.0002C56.649 40.7195 57.1983 40.5791 57.8079 40.5791C58.4254 40.5791 58.9708 40.7154 59.4439 40.9881C59.9171 41.2608 60.286 41.6458 60.5507 42.143C60.8234 42.6322 60.9597 43.2057 60.9597 43.8633C60.9597 43.9114 60.9557 43.9676 60.9477 44.0317C60.9477 44.0959 60.9437 44.156 60.9357 44.2122H55.5101V43.3821H60.3342L59.865 43.6708C59.873 43.2618 59.7888 42.8969 59.6124 42.5761C59.4359 42.2553 59.1913 42.0067 58.8785 41.8302C58.5738 41.6458 58.2169 41.5535 57.8079 41.5535C57.4068 41.5535 57.05 41.6458 56.7372 41.8302C56.4244 42.0067 56.1798 42.2593 56.0033 42.5881C55.8269 42.9089 55.7387 43.2778 55.7387 43.6949V43.8874C55.7387 44.3124 55.8349 44.6934 56.0274 45.0302C56.2279 45.359 56.5046 45.6157 56.8575 45.8002C57.2104 45.9846 57.6154 46.0768 58.0725 46.0768C58.4495 46.0768 58.7903 46.0127 59.0951 45.8844C59.4079 45.756 59.6805 45.5636 59.9131 45.3069L60.5507 46.0528C60.262 46.3896 59.9011 46.6463 59.468 46.8227C59.0429 46.9992 58.5657 47.0874 58.0364 47.0874ZM63.7443 47.0152V41.349L64.033 41.6498H61.4105V40.6392H67.233V41.6498H64.6225L64.8992 41.349V47.0152H63.7443ZM71.3613 42.8047C72.1714 42.8127 72.7889 42.9971 73.214 43.358C73.639 43.7189 73.8516 44.2282 73.8516 44.8859C73.8516 45.5756 73.619 46.1089 73.1538 46.4859C72.6886 46.8548 72.031 47.0352 71.1809 47.0272L68.414 47.0152V40.6392H69.5688V42.7926L71.3613 42.8047ZM71.0846 46.149C71.6059 46.157 71.9989 46.0528 72.2636 45.8362C72.5363 45.6197 72.6726 45.2989 72.6726 44.8738C72.6726 44.4568 72.5403 44.152 72.2756 43.9596C72.011 43.7671 71.614 43.6668 71.0846 43.6588L69.5688 43.6347V46.137L71.0846 46.149ZM82.9192 46.4738V41.6498H80.1523L80.0922 42.8768C80.0761 43.2778 80.048 43.6668 80.0079 44.0438C79.9759 44.4127 79.9197 44.7535 79.8395 45.0663C79.7673 45.3791 79.6591 45.6357 79.5147 45.8362C79.3704 46.0367 79.1779 46.1611 78.9373 46.2092L77.7944 46.0047C78.043 46.0127 78.2435 45.9325 78.3959 45.7641C78.5483 45.5876 78.6646 45.347 78.7448 45.0423C78.833 44.7375 78.8972 44.3926 78.9373 44.0077C78.9774 43.6147 79.0094 43.2097 79.0335 42.7926L79.1297 40.6392H84.0741V46.4738H82.9192ZM77.5418 48.4949V46.0047H85.0485V48.4949H83.9658V47.0152H78.6365V48.4949H77.5418ZM89.2839 47.0874C88.6423 47.0874 88.0729 46.947 87.5756 46.6663C87.0784 46.3856 86.6854 46.0007 86.3967 45.5114C86.1079 45.0142 85.9636 44.4528 85.9636 43.8272C85.9636 43.1936 86.1079 42.6322 86.3967 42.143C86.6854 41.6538 87.0784 41.2728 87.5756 41.0002C88.0729 40.7195 88.6423 40.5791 89.2839 40.5791C89.9175 40.5791 90.4829 40.7195 90.9801 41.0002C91.4854 41.2728 91.8784 41.6538 92.1591 42.143C92.4478 42.6242 92.5922 43.1856 92.5922 43.8272C92.5922 44.4608 92.4478 45.0222 92.1591 45.5114C91.8784 46.0007 91.4854 46.3856 90.9801 46.6663C90.4829 46.947 89.9175 47.0874 89.2839 47.0874ZM89.2839 46.0768C89.6929 46.0768 90.0578 45.9846 90.3786 45.8002C90.7074 45.6157 90.9641 45.355 91.1485 45.0182C91.333 44.6733 91.4252 44.2763 91.4252 43.8272C91.4252 43.3701 91.333 42.9771 91.1485 42.6483C90.9641 42.3114 90.7074 42.0508 90.3786 41.8663C90.0578 41.6819 89.6929 41.5896 89.2839 41.5896C88.8749 41.5896 88.51 41.6819 88.1891 41.8663C87.8683 42.0508 87.6117 42.3114 87.4192 42.6483C87.2267 42.9771 87.1305 43.3701 87.1305 43.8272C87.1305 44.2763 87.2267 44.6733 87.4192 45.0182C87.6117 45.355 87.8683 45.6157 88.1891 45.8002C88.51 45.9846 88.8749 46.0768 89.2839 46.0768ZM94.2598 47.0152V40.6392H95.4508L98.1937 45.355H97.7125L100.527 40.6392H101.61V47.0152H100.564V41.9385L100.756 42.0468L98.1816 46.2934H97.6764L95.0899 41.9626L95.3185 41.9144V47.0152H94.2598ZM106.589 47.0874C105.947 47.0874 105.378 46.947 104.881 46.6663C104.383 46.3856 103.99 46.0007 103.702 45.5114C103.413 45.0142 103.269 44.4528 103.269 43.8272C103.269 43.1936 103.413 42.6322 103.702 42.143C103.99 41.6538 104.383 41.2728 104.881 41.0002C105.378 40.7195 105.947 40.5791 106.589 40.5791C107.222 40.5791 107.788 40.7195 108.285 41.0002C108.79 41.2728 109.183 41.6538 109.464 42.143C109.753 42.6242 109.897 43.1856 109.897 43.8272C109.897 44.4608 109.753 45.0222 109.464 45.5114C109.183 46.0007 108.79 46.3856 108.285 46.6663C107.788 46.947 107.222 47.0874 106.589 47.0874ZM106.589 46.0768C106.998 46.0768 107.363 45.9846 107.684 45.8002C108.012 45.6157 108.269 45.355 108.454 45.0182C108.638 44.6733 108.73 44.2763 108.73 43.8272C108.73 43.3701 108.638 42.9771 108.454 42.6483C108.269 42.3114 108.012 42.0508 107.684 41.8663C107.363 41.6819 106.998 41.5896 106.589 41.5896C106.18 41.5896 105.815 41.6819 105.494 41.8663C105.173 42.0508 104.917 42.3114 104.724 42.6483C104.532 42.9771 104.435 43.3701 104.435 43.8272C104.435 44.2763 104.532 44.6733 104.724 45.0182C104.917 45.355 105.173 45.6157 105.494 45.8002C105.815 45.9846 106.18 46.0768 106.589 46.0768ZM111.565 47.0152V40.6392H114.524C115.27 40.6392 115.856 40.7836 116.281 41.0723C116.714 41.353 116.93 41.754 116.93 42.2753C116.93 42.7966 116.726 43.2017 116.317 43.4904C115.916 43.7711 115.382 43.9114 114.717 43.9114L114.897 43.5986C115.659 43.5986 116.224 43.739 116.593 44.0197C116.962 44.3004 117.147 44.7134 117.147 45.2588C117.147 45.8122 116.938 46.2453 116.521 46.558C116.112 46.8628 115.483 47.0152 114.632 47.0152H111.565ZM112.696 46.125H114.548C115.029 46.125 115.39 46.0528 115.631 45.9084C115.872 45.756 115.992 45.5154 115.992 45.1866C115.992 44.8498 115.88 44.6052 115.655 44.4528C115.438 44.2924 115.094 44.2122 114.62 44.2122H112.696V46.125ZM112.696 43.3821H114.428C114.869 43.3821 115.202 43.3019 115.426 43.1415C115.659 42.9731 115.775 42.7405 115.775 42.4438C115.775 42.139 115.659 41.9104 115.426 41.758C115.202 41.6057 114.869 41.5295 114.428 41.5295H112.696V43.3821ZM122.185 47.0152V40.6392H128.092V47.0152H126.937V41.3611L127.214 41.6498H123.063L123.34 41.3611V47.0152H122.185ZM133.707 47.0874C133.178 47.0874 132.692 46.9671 132.251 46.7265C131.818 46.4778 131.469 46.1129 131.205 45.6317C130.948 45.1505 130.82 44.549 130.82 43.8272C130.82 43.1054 130.944 42.5039 131.193 42.0227C131.449 41.5415 131.794 41.1806 132.227 40.94C132.668 40.6994 133.162 40.5791 133.707 40.5791C134.333 40.5791 134.886 40.7154 135.367 40.9881C135.848 41.2608 136.229 41.6418 136.51 42.131C136.791 42.6122 136.931 43.1776 136.931 43.8272C136.931 44.4768 136.791 45.0463 136.51 45.5355C136.229 46.0247 135.848 46.4057 135.367 46.6783C134.886 46.951 134.333 47.0874 133.707 47.0874ZM130.327 49.349V40.6392H131.433V42.3596L131.361 43.8393L131.481 45.3189V49.349H130.327ZM133.611 46.0768C134.02 46.0768 134.385 45.9846 134.706 45.8002C135.034 45.6157 135.291 45.355 135.475 45.0182C135.668 44.6733 135.764 44.2763 135.764 43.8272C135.764 43.3701 135.668 42.9771 135.475 42.6483C135.291 42.3114 135.034 42.0508 134.706 41.8663C134.385 41.6819 134.02 41.5896 133.611 41.5896C133.21 41.5896 132.845 41.6819 132.516 41.8663C132.195 42.0508 131.939 42.3114 131.746 42.6483C131.562 42.9771 131.469 43.3701 131.469 43.8272C131.469 44.2763 131.562 44.6733 131.746 45.0182C131.939 45.355 132.195 45.6157 132.516 45.8002C132.845 45.9846 133.21 46.0768 133.611 46.0768ZM141.448 47.0874C140.766 47.0874 140.165 46.947 139.644 46.6663C139.13 46.3856 138.729 46.0007 138.441 45.5114C138.16 45.0222 138.02 44.4608 138.02 43.8272C138.02 43.1936 138.156 42.6322 138.429 42.143C138.709 41.6538 139.09 41.2728 139.571 41.0002C140.061 40.7195 140.61 40.5791 141.22 40.5791C141.837 40.5791 142.382 40.7154 142.856 40.9881C143.329 41.2608 143.698 41.6458 143.962 42.143C144.235 42.6322 144.371 43.2057 144.371 43.8633C144.371 43.9114 144.367 43.9676 144.359 44.0317C144.359 44.0959 144.355 44.156 144.347 44.2122H138.922V43.3821H143.746L143.277 43.6708C143.285 43.2618 143.2 42.8969 143.024 42.5761C142.848 42.2553 142.603 42.0067 142.29 41.8302C141.985 41.6458 141.629 41.5535 141.22 41.5535C140.819 41.5535 140.462 41.6458 140.149 41.8302C139.836 42.0067 139.591 42.2593 139.415 42.5881C139.239 42.9089 139.15 43.2778 139.15 43.6949V43.8874C139.15 44.3124 139.247 44.6934 139.439 45.0302C139.64 45.359 139.916 45.6157 140.269 45.8002C140.622 45.9846 141.027 46.0768 141.484 46.0768C141.861 46.0768 142.202 46.0127 142.507 45.8844C142.82 45.756 143.092 45.5636 143.325 45.3069L143.962 46.0528C143.674 46.3896 143.313 46.6463 142.88 46.8227C142.455 46.9992 141.977 47.0874 141.448 47.0874ZM148.942 47.0874C148.292 47.0874 147.711 46.947 147.198 46.6663C146.692 46.3856 146.295 46.0007 146.007 45.5114C145.718 45.0222 145.574 44.4608 145.574 43.8272C145.574 43.1936 145.718 42.6322 146.007 42.143C146.295 41.6538 146.692 41.2728 147.198 41.0002C147.711 40.7195 148.292 40.5791 148.942 40.5791C149.519 40.5791 150.033 40.6954 150.482 40.928C150.939 41.1525 151.292 41.4894 151.54 41.9385L150.662 42.5039C150.454 42.1911 150.197 41.9626 149.892 41.8182C149.596 41.6658 149.275 41.5896 148.93 41.5896C148.513 41.5896 148.14 41.6819 147.811 41.8663C147.482 42.0508 147.222 42.3114 147.029 42.6483C146.837 42.9771 146.74 43.3701 146.74 43.8272C146.74 44.2844 146.837 44.6814 147.029 45.0182C147.222 45.355 147.482 45.6157 147.811 45.8002C148.14 45.9846 148.513 46.0768 148.93 46.0768C149.275 46.0768 149.596 46.0047 149.892 45.8603C150.197 45.7079 150.454 45.4753 150.662 45.1626L151.54 45.7159C151.292 46.157 150.939 46.4979 150.482 46.7385C150.033 46.9711 149.519 47.0874 148.942 47.0874ZM154.217 47.0152V41.349L154.505 41.6498H151.883V40.6392H157.705V41.6498H155.095L155.371 41.349V47.0152H154.217ZM162.796 47.0152V45.6678L162.736 45.4152V43.1174C162.736 42.6282 162.592 42.2513 162.303 41.9866C162.022 41.7139 161.597 41.5776 161.028 41.5776C160.651 41.5776 160.282 41.6418 159.921 41.7701C159.56 41.8904 159.255 42.0548 159.007 42.2633L158.525 41.3971C158.854 41.1325 159.247 40.932 159.704 40.7956C160.169 40.6513 160.655 40.5791 161.16 40.5791C162.034 40.5791 162.708 40.7916 163.181 41.2167C163.654 41.6418 163.891 42.2914 163.891 43.1656V47.0152H162.796ZM160.703 47.0874C160.23 47.0874 159.813 47.0072 159.452 46.8468C159.099 46.6864 158.826 46.4658 158.634 46.1851C158.441 45.8964 158.345 45.5716 158.345 45.2107C158.345 44.8658 158.425 44.553 158.585 44.2723C158.754 43.9916 159.023 43.7671 159.392 43.5986C159.768 43.4302 160.274 43.346 160.907 43.346H162.928V44.1761H160.955C160.378 44.1761 159.989 44.2723 159.788 44.4648C159.588 44.6573 159.488 44.8899 159.488 45.1626C159.488 45.4753 159.612 45.728 159.861 45.9205C160.109 46.1049 160.454 46.1971 160.895 46.1971C161.328 46.1971 161.705 46.1009 162.026 45.9084C162.355 45.7159 162.592 45.4352 162.736 45.0663L162.964 45.8603C162.812 46.2372 162.543 46.538 162.158 46.7626C161.773 46.9791 161.288 47.0874 160.703 47.0874ZM169.351 47.0874C168.821 47.0874 168.336 46.9671 167.895 46.7265C167.462 46.4778 167.113 46.1129 166.849 45.6317C166.592 45.1505 166.464 44.549 166.464 43.8272C166.464 43.1054 166.588 42.5039 166.837 42.0227C167.093 41.5415 167.438 41.1806 167.871 40.94C168.312 40.6994 168.805 40.5791 169.351 40.5791C169.976 40.5791 170.53 40.7154 171.011 40.9881C171.492 41.2608 171.873 41.6418 172.154 42.131C172.435 42.6122 172.575 43.1776 172.575 43.8272C172.575 44.4768 172.435 45.0463 172.154 45.5355C171.873 46.0247 171.492 46.4057 171.011 46.6783C170.53 46.951 169.976 47.0874 169.351 47.0874ZM165.97 49.349V40.6392H167.077V42.3596L167.005 43.8393L167.125 45.3189V49.349H165.97ZM169.255 46.0768C169.664 46.0768 170.028 45.9846 170.349 45.8002C170.678 45.6157 170.935 45.355 171.119 45.0182C171.312 44.6733 171.408 44.2763 171.408 43.8272C171.408 43.3701 171.312 42.9771 171.119 42.6483C170.935 42.3114 170.678 42.0508 170.349 41.8663C170.028 41.6819 169.664 41.5896 169.255 41.5896C168.854 41.5896 168.489 41.6819 168.16 41.8663C167.839 42.0508 167.582 42.3114 167.39 42.6483C167.205 42.9771 167.113 43.3701 167.113 43.8272C167.113 44.2763 167.205 44.6733 167.39 45.0182C167.582 45.355 167.839 45.6157 168.16 45.8002C168.489 45.9846 168.854 46.0768 169.255 46.0768ZM177.092 47.0874C176.41 47.0874 175.809 46.947 175.287 46.6663C174.774 46.3856 174.373 46.0007 174.084 45.5114C173.804 45.0222 173.663 44.4608 173.663 43.8272C173.663 43.1936 173.8 42.6322 174.072 42.143C174.353 41.6538 174.734 41.2728 175.215 41.0002C175.704 40.7195 176.254 40.5791 176.863 40.5791C177.481 40.5791 178.026 40.7154 178.499 40.9881C178.973 41.2608 179.341 41.6458 179.606 42.143C179.879 42.6322 180.015 43.2057 180.015 43.8633C180.015 43.9114 180.011 43.9676 180.003 44.0317C180.003 44.0959 179.999 44.156 179.991 44.2122H174.566V43.3821H179.39L178.92 43.6708C178.928 43.2618 178.844 42.8969 178.668 42.5761C178.491 42.2553 178.247 42.0067 177.934 41.8302C177.629 41.6458 177.272 41.5535 176.863 41.5535C176.462 41.5535 176.105 41.6458 175.793 41.8302C175.48 42.0067 175.235 42.2593 175.059 42.5881C174.882 42.9089 174.794 43.2778 174.794 43.6949V43.8874C174.794 44.3124 174.89 44.6934 175.083 45.0302C175.283 45.359 175.56 45.6157 175.913 45.8002C176.266 45.9846 176.671 46.0768 177.128 46.0768C177.505 46.0768 177.846 46.0127 178.151 45.8844C178.463 45.756 178.736 45.5636 178.969 45.3069L179.606 46.0528C179.317 46.3896 178.957 46.6463 178.523 46.8227C178.098 46.9992 177.621 47.0874 177.092 47.0874ZM180.642 47.0032L180.715 46.0287C180.771 46.0367 180.823 46.0448 180.871 46.0528C180.919 46.0608 180.963 46.0648 181.003 46.0648C181.26 46.0648 181.46 45.9766 181.605 45.8002C181.757 45.6237 181.87 45.3911 181.942 45.1024C182.014 44.8057 182.066 44.4728 182.098 44.1039C182.13 43.735 182.154 43.3661 182.17 42.9971L182.279 40.6392H187.175V47.0152H186.02V41.3129L186.297 41.6498H183.024L183.289 41.3009L183.205 43.0693C183.181 43.6307 183.137 44.156 183.073 44.6453C183.008 45.1345 182.908 45.5636 182.772 45.9325C182.643 46.3014 182.463 46.5901 182.23 46.7986C182.006 47.0072 181.713 47.1114 181.352 47.1114C181.248 47.1114 181.136 47.0994 181.015 47.0753C180.903 47.0593 180.779 47.0352 180.642 47.0032ZM195.712 47.0152V40.6392H196.866V47.0152H195.712ZM192.283 42.8047C193.093 42.8127 193.707 42.9971 194.124 43.358C194.549 43.7189 194.761 44.2282 194.761 44.8859C194.761 45.5756 194.529 46.1089 194.063 46.4859C193.606 46.8548 192.949 47.0352 192.091 47.0272L189.408 47.0152V40.6392H190.563V42.7926L192.283 42.8047ZM192.006 46.149C192.52 46.157 192.913 46.0528 193.185 45.8362C193.458 45.6197 193.594 45.2989 193.594 44.8738C193.594 44.4568 193.458 44.152 193.185 43.9596C192.921 43.7671 192.528 43.6668 192.006 43.6588L190.563 43.6347V46.137L192.006 46.149ZM198.101 47.0152L200.844 43.4543L200.832 44.0438L198.222 40.6392H199.509L201.506 43.2618H201.013L203.01 40.6392H204.273L201.626 44.0678L201.638 43.4543L204.405 47.0152H203.094L200.988 44.2242L201.458 44.2964L199.388 47.0152H198.101Z" fill="#34635B"/>
</svg>
