<svg width="26" height="36" viewBox="0 0 26 36" fill="none" xmlns="http://www.w3.org/2000/svg">
<path d="M21.9914 2.91879H20.2186C19.5812 2.91879 19.0645 3.43044 19.0645 4.0616V10.4345C19.0645 11.0657 19.5812 11.5773 20.2186 11.5773H21.9914C22.6288 11.5773 23.1455 11.0657 23.1455 10.4345V4.0616C23.1455 3.43044 22.6288 2.91879 21.9914 2.91879Z" fill="#50AEA3"/>
<path d="M15.3672 35.4218V29.3835H22.8691L16.3602 35.8285C15.991 36.194 15.3672 35.9366 15.3672 35.4218Z" fill="#50AEA3"/>
<path d="M23.2746 29.0077H15.3672V29.7335H22.5052L23.2746 29.0077Z" fill="#379086"/>
<path d="M24.8971 11.1398L14.0992 0.447856C13.4961 -0.149285 12.5032 -0.149285 11.9001 0.447856L1.10215 11.1398C0.493887 11.7369 0 12.9209 0 13.7651V15.6492C5.7031 19.8447 12.7631 22.3259 20.4105 22.3259C28.058 22.3259 24.1745 22.1714 25.9941 21.878V13.7703C25.9941 12.9261 25.5002 11.7421 24.8919 11.1449L24.8971 11.1398Z" fill="#50AEA3"/>
<path d="M20.4164 24.0555C12.7689 24.0555 5.70896 21.5743 0.00585938 17.3789V27.5509C0.00585938 28.3951 0.707701 29.0901 1.56031 29.0901H24.4455C25.2981 29.0901 25.9999 28.3951 25.9999 27.5509V23.6025C24.1855 23.896 22.3192 24.0504 20.4164 24.0504V24.0555Z" fill="#50AEA3"/>
</svg>
