<svg width="205" height="51" viewBox="0 0 205 51" fill="none" xmlns="http://www.w3.org/2000/svg">
<path d="M30.5258 4.09668H28.065C27.1802 4.09668 26.4629 4.81479 26.4629 5.70062V14.6451C26.4629 15.5309 27.1802 16.249 28.065 16.249H30.5258C31.4106 16.249 32.1278 15.5309 32.1278 14.6451V5.70062C32.1278 4.81479 31.4106 4.09668 30.5258 4.09668Z" fill="white"/>
<path d="M21.332 49.7146V41.2397H31.7454L22.7104 50.2854C22.198 50.7983 21.332 50.4371 21.332 49.7146Z" fill="white"/>
<path d="M32.3083 40.7124H21.332V41.7311H31.2403L32.3083 40.7124Z" fill="white"/>
<path d="M34.5598 15.6348L19.5712 0.62857C18.734 -0.209523 17.3557 -0.209523 16.5186 0.62857L1.5299 15.6348C0.685567 16.4729 0 18.1346 0 19.3195V21.9638C7.91651 27.8521 17.7165 31.3346 28.332 31.3346C38.9475 31.3346 33.5568 31.1178 36.0825 30.706V19.3267C36.0825 18.1418 35.397 16.4801 34.5526 15.642L34.5598 15.6348Z" fill="white"/>
<path d="M28.3398 33.7623C17.7243 33.7623 7.92432 30.2799 0.0078125 24.3916V38.6681C0.0078125 39.853 0.982043 40.8283 2.16555 40.8283H33.9326C35.1161 40.8283 36.0903 39.853 36.0903 38.6681V33.1266C33.5718 33.5384 30.9811 33.7551 28.3398 33.7551V33.7623Z" fill="white"/>
<path d="M48.7801 26.248V4.35331H57.7882C59.7275 4.35331 61.3852 4.66609 62.7615 5.29166C64.1586 5.91722 65.2324 6.81386 65.9831 7.98158C66.7338 9.1493 67.1091 10.536 67.1091 12.1416C67.1091 13.7472 66.7338 15.1339 65.9831 16.3016C65.2324 17.4693 64.1586 18.3659 62.7615 18.9915C61.3852 19.6171 59.7275 19.9299 57.7882 19.9299H51.0321L52.8463 18.0219V26.248H48.7801ZM52.8463 18.4598L51.0321 16.4893H57.6006C59.3938 16.4893 60.7388 16.1139 61.6354 15.3632C62.5529 14.5917 63.0117 13.5178 63.0117 12.1416C63.0117 10.7445 62.5529 9.6706 61.6354 8.91993C60.7388 8.16925 59.3938 7.79391 57.6006 7.79391H51.0321L52.8463 5.79211V18.4598ZM80.3882 26.248V20.5554L80.9512 21.2123H75.9467C73.653 21.2123 71.8492 20.7327 70.5356 19.7735C69.2427 18.7934 68.5963 17.3859 68.5963 15.5509C68.5963 13.5908 69.2844 12.0999 70.6607 11.0781C72.0578 10.0564 73.9136 9.54549 76.2282 9.54549H83.8913V26.248H80.3882ZM68.3774 26.248L72.8814 19.8673H76.885L72.5686 26.248H68.3774ZM80.3882 19.3043V11.7975L80.9512 12.8297H76.3533C75.1439 12.8297 74.2055 13.0591 73.5383 13.5178C72.8918 13.9557 72.5686 14.6751 72.5686 15.676C72.5686 17.5527 73.7885 18.4911 76.2282 18.4911H80.9512L80.3882 19.3043ZM100.598 24.4339V12.861H94.1863L94.0924 15.5509C94.0507 16.5101 93.9882 17.438 93.9048 18.3347C93.8214 19.2105 93.6858 20.0237 93.4982 20.7744C93.3105 21.5042 93.0394 22.1089 92.6849 22.5885C92.3304 23.0681 91.8613 23.3809 91.2774 23.5268L87.3989 22.9326C88.0245 22.9326 88.5249 22.7345 88.9003 22.3383C89.2964 21.9212 89.5988 21.3582 89.8073 20.6492C90.0367 19.9194 90.2035 19.0958 90.3078 18.1783C90.412 17.2399 90.485 16.2703 90.5267 15.2694L90.7457 9.54549H104.508V24.4339H100.598ZM86.8046 29.9702V22.9326H106.979V29.9702H103.32V26.248H90.4329V29.9702H86.8046ZM117.915 26.467C116.205 26.467 114.683 26.1021 113.349 25.3723C112.014 24.6216 110.961 23.5998 110.189 22.307C109.418 21.0142 109.032 19.5441 109.032 17.8968C109.032 16.2286 109.418 14.7585 110.189 13.4865C110.961 12.1937 112.014 11.1824 113.349 10.4526C114.683 9.72273 116.205 9.35782 117.915 9.35782C119.646 9.35782 121.179 9.72273 122.513 10.4526C123.868 11.1824 124.921 12.1833 125.672 13.4553C126.444 14.7272 126.829 16.2077 126.829 17.8968C126.829 19.5441 126.444 21.0142 125.672 22.307C124.921 23.5998 123.868 24.6216 122.513 25.3723C121.179 26.1021 119.646 26.467 117.915 26.467ZM117.915 23.1202C118.874 23.1202 119.729 22.9117 120.48 22.4947C121.231 22.0776 121.815 21.4729 122.232 20.6805C122.669 19.8881 122.888 18.9602 122.888 17.8968C122.888 16.8125 122.669 15.8845 122.232 15.113C121.815 14.3206 121.231 13.7159 120.48 13.2989C119.729 12.8818 118.885 12.6733 117.946 12.6733C116.987 12.6733 116.132 12.8818 115.382 13.2989C114.652 13.7159 114.068 14.3206 113.63 15.113C113.192 15.8845 112.973 16.8125 112.973 17.8968C112.973 18.9602 113.192 19.8881 113.63 20.6805C114.068 21.4729 114.652 22.0776 115.382 22.4947C116.132 22.9117 116.977 23.1202 117.915 23.1202ZM130.692 26.248V9.54549H134.789L141.514 21.3999H139.888L146.956 9.54549H150.616L150.647 26.248H147.113V13.7368L147.738 14.1434L141.483 24.4965H139.794L133.507 13.8619L134.258 13.6742V26.248H130.692Z" fill="white"/>
<path opacity="0.6" d="M50.7915 46.3746C50.1499 46.3746 49.5564 46.2703 49.0111 46.0618C48.4737 45.8452 48.0046 45.5445 47.6036 45.1595C47.2106 44.7665 46.9018 44.3094 46.6772 43.7881C46.4527 43.2668 46.3404 42.6934 46.3404 42.0678C46.3404 41.4422 46.4527 40.8688 46.6772 40.3475C46.9018 39.8262 47.2146 39.3731 47.6156 38.9881C48.0166 38.5951 48.4858 38.2944 49.0231 38.0858C49.5685 37.8693 50.162 37.761 50.8036 37.761C51.4532 37.761 52.0507 37.8733 52.596 38.0979C53.1494 38.3144 53.6186 38.6392 54.0036 39.0723L53.2216 39.8302C52.9008 39.4934 52.5399 39.2447 52.1389 39.0843C51.7379 38.9159 51.3088 38.8317 50.8517 38.8317C50.3785 38.8317 49.9374 38.9119 49.5284 39.0723C49.1274 39.2327 48.7785 39.4573 48.4818 39.746C48.185 40.0347 47.9524 40.3796 47.784 40.7806C47.6236 41.1736 47.5434 41.6026 47.5434 42.0678C47.5434 42.533 47.6236 42.966 47.784 43.367C47.9524 43.76 48.185 44.1009 48.4818 44.3896C48.7785 44.6783 49.1274 44.9029 49.5284 45.0633C49.9374 45.2237 50.3785 45.3039 50.8517 45.3039C51.3088 45.3039 51.7379 45.2237 52.1389 45.0633C52.5399 44.8949 52.9008 44.6382 53.2216 44.2934L54.0036 45.0513C53.6186 45.4843 53.1494 45.8132 52.596 46.0377C52.0507 46.2623 51.4492 46.3746 50.7915 46.3746ZM58.0374 46.3505C57.3557 46.3505 56.7542 46.2101 56.2329 45.9294C55.7196 45.6487 55.3186 45.2638 55.0299 44.7746C54.7492 44.2853 54.6088 43.7239 54.6088 43.0904C54.6088 42.4568 54.7452 41.8954 55.0179 41.4061C55.2986 40.9169 55.6795 40.536 56.1607 40.2633C56.6499 39.9826 57.1993 39.8422 57.8088 39.8422C58.4264 39.8422 58.9717 39.9786 59.4449 40.2513C59.9181 40.5239 60.287 40.9089 60.5517 41.4061C60.8244 41.8954 60.9607 42.4688 60.9607 43.1264C60.9607 43.1746 60.9567 43.2307 60.9487 43.2949C60.9487 43.359 60.9447 43.4192 60.9366 43.4753H55.5111V42.6452H60.3351L59.866 42.934C59.874 42.5249 59.7898 42.16 59.6133 41.8392C59.4369 41.5184 59.1923 41.2698 58.8795 41.0934C58.5747 40.9089 58.2179 40.8167 57.8088 40.8167C57.4078 40.8167 57.0509 40.9089 56.7382 41.0934C56.4254 41.2698 56.1808 41.5224 56.0043 41.8513C55.8279 42.1721 55.7397 42.541 55.7397 42.958V43.1505C55.7397 43.5756 55.8359 43.9565 56.0284 44.2934C56.2289 44.6222 56.5056 44.8788 56.8585 45.0633C57.2113 45.2477 57.6163 45.34 58.0735 45.34C58.4504 45.34 58.7913 45.2758 59.096 45.1475C59.4088 45.0192 59.6815 44.8267 59.9141 44.57L60.5517 45.3159C60.263 45.6528 59.9021 45.9094 59.469 46.0858C59.0439 46.2623 58.5667 46.3505 58.0374 46.3505ZM63.7453 46.2783V40.6122L64.034 40.9129H61.4115V39.9024H67.234V40.9129H64.6235L64.9002 40.6122V46.2783H63.7453ZM71.3623 42.0678C72.1723 42.0758 72.7899 42.2603 73.2149 42.6212C73.64 42.9821 73.8525 43.4914 73.8525 44.149C73.8525 44.8387 73.62 45.3721 73.1548 45.749C72.6896 46.1179 72.032 46.2984 71.1819 46.2904L68.4149 46.2783V39.9024H69.5698V42.0558L71.3623 42.0678ZM71.0856 45.4122C71.6069 45.4202 71.9999 45.3159 72.2646 45.0994C72.5372 44.8828 72.6736 44.562 72.6736 44.137C72.6736 43.7199 72.5413 43.4152 72.2766 43.2227C72.0119 43.0302 71.6149 42.9299 71.0856 42.9219L69.5698 42.8979V45.4001L71.0856 45.4122ZM82.9202 45.737V40.9129H80.1533L80.0931 42.14C80.0771 42.541 80.049 42.9299 80.0089 43.3069C79.9768 43.6758 79.9207 44.0167 79.8405 44.3294C79.7683 44.6422 79.66 44.8989 79.5157 45.0994C79.3713 45.2999 79.1788 45.4242 78.9382 45.4723L77.7954 45.2678C78.044 45.2758 78.2445 45.1956 78.3969 45.0272C78.5493 44.8508 78.6656 44.6101 78.7458 44.3054C78.834 44.0006 78.8981 43.6558 78.9382 43.2708C78.9783 42.8778 79.0104 42.4728 79.0345 42.0558L79.1307 39.9024H84.0751V45.737H82.9202ZM77.5428 47.758V45.2678H85.0495V47.758H83.9668V46.2783H78.6375V47.758H77.5428ZM89.2849 46.3505C88.6433 46.3505 88.0738 46.2101 87.5766 45.9294C87.0793 45.6487 86.6864 45.2638 86.3976 44.7746C86.1089 44.2773 85.9646 43.7159 85.9646 43.0904C85.9646 42.4568 86.1089 41.8954 86.3976 41.4061C86.6864 40.9169 87.0793 40.536 87.5766 40.2633C88.0738 39.9826 88.6433 39.8422 89.2849 39.8422C89.9184 39.8422 90.4839 39.9826 90.9811 40.2633C91.4864 40.536 91.8793 40.9169 92.1601 41.4061C92.4488 41.8873 92.5931 42.4487 92.5931 43.0904C92.5931 43.7239 92.4488 44.2853 92.1601 44.7746C91.8793 45.2638 91.4864 45.6487 90.9811 45.9294C90.4839 46.2101 89.9184 46.3505 89.2849 46.3505ZM89.2849 45.34C89.6939 45.34 90.0588 45.2477 90.3796 45.0633C90.7084 44.8788 90.9651 44.6182 91.1495 44.2813C91.334 43.9365 91.4262 43.5395 91.4262 43.0904C91.4262 42.6332 91.334 42.2402 91.1495 41.9114C90.9651 41.5746 90.7084 41.3139 90.3796 41.1294C90.0588 40.945 89.6939 40.8528 89.2849 40.8528C88.8758 40.8528 88.5109 40.945 88.1901 41.1294C87.8693 41.3139 87.6127 41.5746 87.4202 41.9114C87.2277 42.2402 87.1315 42.6332 87.1315 43.0904C87.1315 43.5395 87.2277 43.9365 87.4202 44.2813C87.6127 44.6182 87.8693 44.8788 88.1901 45.0633C88.5109 45.2477 88.8758 45.34 89.2849 45.34ZM94.2608 46.2783V39.9024H95.4518L98.1946 44.6182H97.7134L100.528 39.9024H101.611V46.2783H100.565V41.2016L100.757 41.3099L98.1826 45.5565H97.6773L95.0909 41.2257L95.3194 41.1776V46.2783H94.2608ZM106.59 46.3505C105.948 46.3505 105.379 46.2101 104.882 45.9294C104.384 45.6487 103.991 45.2638 103.703 44.7746C103.414 44.2773 103.27 43.7159 103.27 43.0904C103.27 42.4568 103.414 41.8954 103.703 41.4061C103.991 40.9169 104.384 40.536 104.882 40.2633C105.379 39.9826 105.948 39.8422 106.59 39.8422C107.223 39.8422 107.789 39.9826 108.286 40.2633C108.791 40.536 109.184 40.9169 109.465 41.4061C109.754 41.8873 109.898 42.4487 109.898 43.0904C109.898 43.7239 109.754 44.2853 109.465 44.7746C109.184 45.2638 108.791 45.6487 108.286 45.9294C107.789 46.2101 107.223 46.3505 106.59 46.3505ZM106.59 45.34C106.999 45.34 107.364 45.2477 107.685 45.0633C108.013 44.8788 108.27 44.6182 108.455 44.2813C108.639 43.9365 108.731 43.5395 108.731 43.0904C108.731 42.6332 108.639 42.2402 108.455 41.9114C108.27 41.5746 108.013 41.3139 107.685 41.1294C107.364 40.945 106.999 40.8528 106.59 40.8528C106.181 40.8528 105.816 40.945 105.495 41.1294C105.174 41.3139 104.918 41.5746 104.725 41.9114C104.533 42.2402 104.436 42.6332 104.436 43.0904C104.436 43.5395 104.533 43.9365 104.725 44.2813C104.918 44.6182 105.174 44.8788 105.495 45.0633C105.816 45.2477 106.181 45.34 106.59 45.34ZM111.566 46.2783V39.9024H114.525C115.271 39.9024 115.857 40.0467 116.282 40.3355C116.715 40.6162 116.931 41.0172 116.931 41.5385C116.931 42.0598 116.727 42.4648 116.318 42.7535C115.917 43.0342 115.383 43.1746 114.718 43.1746L114.898 42.8618C115.66 42.8618 116.225 43.0021 116.594 43.2828C116.963 43.5635 117.148 43.9766 117.148 44.5219C117.148 45.0753 116.939 45.5084 116.522 45.8212C116.113 46.1259 115.484 46.2783 114.633 46.2783H111.566ZM112.697 45.3881H114.549C115.03 45.3881 115.391 45.3159 115.632 45.1716C115.873 45.0192 115.993 44.7786 115.993 44.4497C115.993 44.1129 115.881 43.8683 115.656 43.7159C115.439 43.5555 115.095 43.4753 114.621 43.4753H112.697V45.3881ZM112.697 42.6452H114.429C114.87 42.6452 115.203 42.565 115.427 42.4046C115.66 42.2362 115.776 42.0036 115.776 41.7069C115.776 41.4021 115.66 41.1736 115.427 41.0212C115.203 40.8688 114.87 40.7926 114.429 40.7926H112.697V42.6452ZM122.186 46.2783V39.9024H128.093V46.2783H126.938V40.6242L127.215 40.9129H123.064L123.341 40.6242V46.2783H122.186ZM133.708 46.3505C133.179 46.3505 132.693 46.2302 132.252 45.9896C131.819 45.741 131.47 45.3761 131.206 44.8949C130.949 44.4137 130.821 43.8122 130.821 43.0904C130.821 42.3685 130.945 41.767 131.194 41.2858C131.45 40.8046 131.795 40.4437 132.228 40.2031C132.669 39.9625 133.163 39.8422 133.708 39.8422C134.334 39.8422 134.887 39.9786 135.368 40.2513C135.849 40.5239 136.23 40.9049 136.511 41.3941C136.792 41.8753 136.932 42.4407 136.932 43.0904C136.932 43.74 136.792 44.3094 136.511 44.7986C136.23 45.2878 135.849 45.6688 135.368 45.9415C134.887 46.2142 134.334 46.3505 133.708 46.3505ZM130.328 48.6122V39.9024H131.434V41.6227L131.362 43.1024L131.482 44.5821V48.6122H130.328ZM133.612 45.34C134.021 45.34 134.386 45.2477 134.706 45.0633C135.035 44.8788 135.292 44.6182 135.476 44.2813C135.669 43.9365 135.765 43.5395 135.765 43.0904C135.765 42.6332 135.669 42.2402 135.476 41.9114C135.292 41.5746 135.035 41.3139 134.706 41.1294C134.386 40.945 134.021 40.8528 133.612 40.8528C133.211 40.8528 132.846 40.945 132.517 41.1294C132.196 41.3139 131.94 41.5746 131.747 41.9114C131.563 42.2402 131.47 42.6332 131.47 43.0904C131.47 43.5395 131.563 43.9365 131.747 44.2813C131.94 44.6182 132.196 44.8788 132.517 45.0633C132.846 45.2477 133.211 45.34 133.612 45.34ZM141.449 46.3505C140.767 46.3505 140.166 46.2101 139.645 45.9294C139.131 45.6487 138.73 45.2638 138.442 44.7746C138.161 44.2853 138.02 43.7239 138.02 43.0904C138.02 42.4568 138.157 41.8954 138.43 41.4061C138.71 40.9169 139.091 40.536 139.572 40.2633C140.062 39.9826 140.611 39.8422 141.22 39.8422C141.838 39.8422 142.383 39.9786 142.857 40.2513C143.33 40.5239 143.699 40.9089 143.963 41.4061C144.236 41.8954 144.372 42.4688 144.372 43.1264C144.372 43.1746 144.368 43.2307 144.36 43.2949C144.36 43.359 144.356 43.4192 144.348 43.4753H138.923V42.6452H143.747L143.278 42.934C143.286 42.5249 143.201 42.16 143.025 41.8392C142.849 41.5184 142.604 41.2698 142.291 41.0934C141.986 40.9089 141.63 40.8167 141.22 40.8167C140.819 40.8167 140.463 40.9089 140.15 41.0934C139.837 41.2698 139.592 41.5224 139.416 41.8513C139.24 42.1721 139.151 42.541 139.151 42.958V43.1505C139.151 43.5756 139.248 43.9565 139.44 44.2934C139.641 44.6222 139.917 44.8788 140.27 45.0633C140.623 45.2477 141.028 45.34 141.485 45.34C141.862 45.34 142.203 45.2758 142.508 45.1475C142.82 45.0192 143.093 44.8267 143.326 44.57L143.963 45.3159C143.675 45.6528 143.314 45.9094 142.881 46.0858C142.456 46.2623 141.978 46.3505 141.449 46.3505ZM148.943 46.3505C148.293 46.3505 147.712 46.2101 147.199 45.9294C146.693 45.6487 146.296 45.2638 146.008 44.7746C145.719 44.2853 145.575 43.7239 145.575 43.0904C145.575 42.4568 145.719 41.8954 146.008 41.4061C146.296 40.9169 146.693 40.536 147.199 40.2633C147.712 39.9826 148.293 39.8422 148.943 39.8422C149.52 39.8422 150.034 39.9585 150.483 40.1911C150.94 40.4157 151.293 40.7525 151.541 41.2016L150.663 41.767C150.455 41.4543 150.198 41.2257 149.893 41.0813C149.597 40.9289 149.276 40.8528 148.931 40.8528C148.514 40.8528 148.141 40.945 147.812 41.1294C147.483 41.3139 147.223 41.5746 147.03 41.9114C146.838 42.2402 146.741 42.6332 146.741 43.0904C146.741 43.5475 146.838 43.9445 147.03 44.2813C147.223 44.6182 147.483 44.8788 147.812 45.0633C148.141 45.2477 148.514 45.34 148.931 45.34C149.276 45.34 149.597 45.2678 149.893 45.1234C150.198 44.9711 150.455 44.7385 150.663 44.4257L151.541 44.9791C151.293 45.4202 150.94 45.761 150.483 46.0016C150.034 46.2342 149.52 46.3505 148.943 46.3505ZM154.218 46.2783V40.6122L154.506 40.9129H151.884V39.9024H157.706V40.9129H155.096L155.372 40.6122V46.2783H154.218ZM162.797 46.2783V44.931L162.737 44.6783V42.3806C162.737 41.8914 162.592 41.5144 162.304 41.2497C162.023 40.9771 161.598 40.8407 161.029 40.8407C160.652 40.8407 160.283 40.9049 159.922 41.0332C159.561 41.1535 159.256 41.3179 159.008 41.5264L158.526 40.6603C158.855 40.3956 159.248 40.1951 159.705 40.0588C160.17 39.9144 160.656 39.8422 161.161 39.8422C162.035 39.8422 162.709 40.0548 163.182 40.4798C163.655 40.9049 163.892 41.5545 163.892 42.4287V46.2783H162.797ZM160.704 46.3505C160.231 46.3505 159.814 46.2703 159.453 46.1099C159.1 45.9495 158.827 45.7289 158.635 45.4482C158.442 45.1595 158.346 44.8347 158.346 44.4738C158.346 44.1289 158.426 43.8162 158.586 43.5355C158.755 43.2548 159.024 43.0302 159.392 42.8618C159.769 42.6934 160.275 42.6091 160.908 42.6091H162.929V43.4392H160.956C160.379 43.4392 159.99 43.5355 159.789 43.7279C159.589 43.9204 159.489 44.153 159.489 44.4257C159.489 44.7385 159.613 44.9911 159.862 45.1836C160.11 45.368 160.455 45.4603 160.896 45.4603C161.329 45.4603 161.706 45.364 162.027 45.1716C162.356 44.9791 162.592 44.6984 162.737 44.3294L162.965 45.1234C162.813 45.5004 162.544 45.8011 162.159 46.0257C161.774 46.2422 161.289 46.3505 160.704 46.3505ZM169.352 46.3505C168.822 46.3505 168.337 46.2302 167.896 45.9896C167.463 45.741 167.114 45.3761 166.85 44.8949C166.593 44.4137 166.465 43.8122 166.465 43.0904C166.465 42.3685 166.589 41.767 166.837 41.2858C167.094 40.8046 167.439 40.4437 167.872 40.2031C168.313 39.9625 168.806 39.8422 169.352 39.8422C169.977 39.8422 170.531 39.9786 171.012 40.2513C171.493 40.5239 171.874 40.9049 172.155 41.3941C172.435 41.8753 172.576 42.4407 172.576 43.0904C172.576 43.74 172.435 44.3094 172.155 44.7986C171.874 45.2878 171.493 45.6688 171.012 45.9415C170.531 46.2142 169.977 46.3505 169.352 46.3505ZM165.971 48.6122V39.9024H167.078V41.6227L167.006 43.1024L167.126 44.5821V48.6122H165.971ZM169.256 45.34C169.665 45.34 170.029 45.2477 170.35 45.0633C170.679 44.8788 170.936 44.6182 171.12 44.2813C171.313 43.9365 171.409 43.5395 171.409 43.0904C171.409 42.6332 171.313 42.2402 171.12 41.9114C170.936 41.5746 170.679 41.3139 170.35 41.1294C170.029 40.945 169.665 40.8528 169.256 40.8528C168.855 40.8528 168.49 40.945 168.161 41.1294C167.84 41.3139 167.583 41.5746 167.391 41.9114C167.206 42.2402 167.114 42.6332 167.114 43.0904C167.114 43.5395 167.206 43.9365 167.391 44.2813C167.583 44.6182 167.84 44.8788 168.161 45.0633C168.49 45.2477 168.855 45.34 169.256 45.34ZM177.093 46.3505C176.411 46.3505 175.81 46.2101 175.288 45.9294C174.775 45.6487 174.374 45.2638 174.085 44.7746C173.805 44.2853 173.664 43.7239 173.664 43.0904C173.664 42.4568 173.801 41.8954 174.073 41.4061C174.354 40.9169 174.735 40.536 175.216 40.2633C175.705 39.9826 176.255 39.8422 176.864 39.8422C177.482 39.8422 178.027 39.9786 178.5 40.2513C178.974 40.5239 179.342 40.9089 179.607 41.4061C179.88 41.8954 180.016 42.4688 180.016 43.1264C180.016 43.1746 180.012 43.2307 180.004 43.2949C180.004 43.359 180 43.4192 179.992 43.4753H174.567V42.6452H179.391L178.921 42.934C178.929 42.5249 178.845 42.16 178.669 41.8392C178.492 41.5184 178.248 41.2698 177.935 41.0934C177.63 40.9089 177.273 40.8167 176.864 40.8167C176.463 40.8167 176.106 40.9089 175.794 41.0934C175.481 41.2698 175.236 41.5224 175.06 41.8513C174.883 42.1721 174.795 42.541 174.795 42.958V43.1505C174.795 43.5756 174.891 43.9565 175.084 44.2934C175.284 44.6222 175.561 44.8788 175.914 45.0633C176.267 45.2477 176.672 45.34 177.129 45.34C177.506 45.34 177.847 45.2758 178.151 45.1475C178.464 45.0192 178.737 44.8267 178.97 44.57L179.607 45.3159C179.318 45.6528 178.958 45.9094 178.524 46.0858C178.099 46.2623 177.622 46.3505 177.093 46.3505ZM180.643 46.2663L180.716 45.2919C180.772 45.2999 180.824 45.3079 180.872 45.3159C180.92 45.3239 180.964 45.3279 181.004 45.3279C181.261 45.3279 181.461 45.2397 181.606 45.0633C181.758 44.8868 181.87 44.6543 181.943 44.3655C182.015 44.0688 182.067 43.736 182.099 43.367C182.131 42.9981 182.155 42.6292 182.171 42.2603L182.28 39.9024H187.176V46.2783H186.021V40.5761L186.298 40.9129H183.025L183.29 40.564L183.206 42.3325C183.182 42.8939 183.138 43.4192 183.073 43.9084C183.009 44.3976 182.909 44.8267 182.773 45.1956C182.644 45.5645 182.464 45.8533 182.231 46.0618C182.007 46.2703 181.714 46.3746 181.353 46.3746C181.249 46.3746 181.137 46.3625 181.016 46.3385C180.904 46.3224 180.78 46.2984 180.643 46.2663ZM195.713 46.2783V39.9024H196.867V46.2783H195.713ZM192.284 42.0678C193.094 42.0758 193.708 42.2603 194.125 42.6212C194.55 42.9821 194.762 43.4914 194.762 44.149C194.762 44.8387 194.53 45.3721 194.064 45.749C193.607 46.1179 192.95 46.2984 192.092 46.2904L189.409 46.2783V39.9024H190.564V42.0558L192.284 42.0678ZM192.007 45.4122C192.521 45.4202 192.914 45.3159 193.186 45.0994C193.459 44.8828 193.595 44.562 193.595 44.137C193.595 43.7199 193.459 43.4152 193.186 43.2227C192.922 43.0302 192.529 42.9299 192.007 42.9219L190.564 42.8979V45.4001L192.007 45.4122ZM198.102 46.2783L200.845 42.7174L200.833 43.3069L198.223 39.9024H199.51L201.507 42.5249H201.014L203.011 39.9024H204.274L201.627 43.331L201.639 42.7174L204.406 46.2783H203.095L200.989 43.4873L201.459 43.5595L199.389 46.2783H198.102Z" fill="white"/>
</svg>
