<svg width="16" height="16" viewBox="0 0 16 16" fill="none" xmlns="http://www.w3.org/2000/svg">
<path fill-rule="evenodd" clip-rule="evenodd" d="M16 3.77606C16 5.86152 14.3025 7.55212 12.2084 7.55212C11.8264 7.55212 10.9564 7.46431 10.5331 7.11305L10.004 7.63996C9.69297 7.94975 9.77698 8.04096 9.91535 8.1912C9.97309 8.25389 10.0403 8.32686 10.0922 8.43028C10.0922 8.43028 10.5331 9.04498 10.0922 9.65969C9.82768 10.011 9.08701 10.5027 8.24052 9.65969L8.06417 9.83532C8.06417 9.83532 8.59323 10.45 8.15235 11.0647C7.88782 11.416 7.18242 11.7673 6.56519 11.1526L5.94796 11.7673C5.52471 12.1888 5.00743 11.9429 4.8017 11.7673L4.27264 11.2404C3.77886 10.7486 4.0669 10.2159 4.27264 10.011L8.85778 5.44455C8.85778 5.44455 8.4169 4.74203 8.4169 3.77606C8.4169 1.6906 10.1144 0 12.2084 0C14.3025 0 16 1.6906 16 3.77606ZM13.5312 3.77602C13.5312 4.50351 12.939 5.09325 12.2086 5.09325C11.4781 5.09325 10.8859 4.50351 10.8859 3.77602C10.8859 3.04853 11.4781 2.45879 12.2086 2.45879C12.939 2.45879 13.5312 3.04853 13.5312 3.77602Z" fill="#50AEA3"/>
<path d="M8.95655 0.000808829C7.89203 0.912631 7.21684 2.26451 7.21684 3.77606C7.21684 4.32101 7.31857 4.79762 7.43563 5.16725L3.4258 9.16069C3.18698 9.39853 2.91144 9.80171 2.82598 10.3245C2.72823 10.9225 2.9016 11.5686 3.4258 12.0906L3.95485 12.6175C3.9766 12.6392 3.99918 12.66 4.02252 12.6799C4.25858 12.8814 4.64179 13.1079 5.11775 13.1783C5.65121 13.2571 6.2774 13.1286 6.78837 12.6238C7.0972 12.7016 7.41267 12.7077 7.7167 12.6495C8.31998 12.5339 8.81487 12.1797 9.11088 11.7866C9.11648 11.7792 9.12199 11.7717 9.12742 11.7641C9.23374 11.6159 9.31503 11.4663 9.37565 11.3181C9.45315 11.3118 9.53071 11.3012 9.6082 11.2865C10.2976 11.1557 10.7885 10.7298 11.0507 10.3816C11.0563 10.3741 11.0619 10.3666 11.0673 10.3591C11.4899 9.76985 11.5335 9.15791 11.4567 8.6944C11.7469 8.73655 12.0137 8.75212 12.2084 8.75212C13.7233 8.75212 15.0829 8.07848 15.9991 7.01368C16 7.32734 16 7.65582 16 8C16 11.7712 16 13.6569 14.8284 14.8284C13.6569 16 11.7712 16 8 16C4.22876 16 2.34315 16 1.17157 14.8284C0 13.6569 0 11.7712 0 8C0 4.22876 0 2.34315 1.17157 1.17157C2.34315 0 4.22876 0 8 0C8.33331 0 8.65189 0 8.95655 0.000808829Z" fill="#50AEA3"/>
</svg>
