<svg width="16" height="17" viewBox="0 0 16 17" fill="none" xmlns="http://www.w3.org/2000/svg">
<path d="M14.3775 11.6869L14.9946 8.34446C15.1488 7.50964 14.4633 6.74607 13.5598 6.74607H9.02775C8.57859 6.74607 8.23654 6.36845 8.30925 5.95283L8.8889 2.63923C8.98307 2.1009 8.95618 1.55007 8.80994 1.02206C8.6888 0.584667 8.32849 0.233452 7.85465 0.090878L7.72784 0.0527237C7.44146 -0.0334431 7.1289 -0.0133919 6.8589 0.108466C6.56171 0.242596 6.34429 0.487251 6.2637 0.778219L5.84759 2.28065C5.7152 2.75869 5.52234 3.22012 5.27369 3.65611C4.91037 4.29314 4.34864 4.80297 3.76473 5.27424L2.50624 6.28997C2.15141 6.57635 1.96506 7.00525 2.00543 7.44262L2.71585 15.1378C2.78101 15.8436 3.41107 16.3855 4.16664 16.3855H8.23288C11.278 16.3855 13.8769 14.3982 14.3775 11.6869Z" fill="#50AEA3"/>
<path fill-rule="evenodd" clip-rule="evenodd" d="M0.627756 5.13217C0.978749 5.11799 1.27938 5.3653 1.30964 5.69312L2.15952 14.8989C2.21411 15.4903 1.7168 15.9999 1.08177 15.9999C0.483624 15.9999 0 15.5454 0 14.9863V5.74606C0 5.41701 0.276762 5.14636 0.627756 5.13217Z" fill="#50AEA3"/>
</svg>
