<svg width="14" height="18" viewBox="0 0 14 18" fill="none" xmlns="http://www.w3.org/2000/svg">
<path d="M1.46083 7.12293L4.14021 3.39419C5.87215 0.983947 6.73812 -0.221176 7.54606 0.0334921C8.354 0.28816 8.354 1.76624 8.354 4.72241V5.00114C8.354 6.06736 8.354 6.60047 8.68522 6.93487L8.70275 6.95219C9.04112 7.27953 9.58056 7.27953 10.6595 7.27953C12.601 7.27953 13.5717 7.27953 13.8998 7.88518C13.9053 7.8952 13.9105 7.90531 13.9157 7.9155C14.2254 8.53052 13.6633 9.31272 12.5391 10.8771L9.85977 14.6058C8.12779 17.0161 7.2618 18.2212 6.45386 17.9665C5.64592 17.7118 5.64594 16.2337 5.64598 13.2775L5.64599 12.9989C5.646 11.9327 5.64601 11.3996 5.31479 11.0652L5.29726 11.0478C4.95889 10.7205 4.41944 10.7205 3.34053 10.7205C1.39902 10.7205 0.428266 10.7205 0.100185 10.1149C0.0947526 10.1048 0.0894718 10.0947 0.084344 10.0845C-0.225364 9.46951 0.336702 8.68732 1.46083 7.12293Z" fill="#50AEA3"/>
</svg>
