<svg width="16" height="14" viewBox="0 0 16 14" fill="none" xmlns="http://www.w3.org/2000/svg">
<path d="M4.88502 12.1676C2.63855 10.4082 0 8.34162 0 4.75923C0 0.804499 4.40013 -2.00012 8 1.80191L9.6 3.42729C9.83436 3.66544 10.2143 3.66537 10.4485 3.42713C10.6828 3.1889 10.6827 2.80271 10.4484 2.56456L8.90277 0.993948C12.2948 -1.53038 16 1.13019 16 4.75923C16 8.34162 13.3615 10.4082 11.115 12.1676C10.8815 12.3505 10.6522 12.5301 10.4306 12.7077C9.6 13.3733 8.8 14 8 14C7.2 14 6.4 13.3733 5.56939 12.7077C5.34777 12.5301 5.11851 12.3505 4.88502 12.1676Z" fill="#50AEA3"/>
</svg>
