<svg width="216" height="50" viewBox="0 0 216 50" fill="none" xmlns="http://www.w3.org/2000/svg">
<path d="M0.000706937 12.5742L3.10162 17.6167C6.2386 22.718 11.7989 25.826 17.7871 25.826H21.7311C25.9539 25.826 29.378 29.2494 29.378 33.4729V41.7231C29.378 45.9458 25.9546 49.37 21.7311 49.37H7.64689C3.42416 49.37 0 45.9465 0 41.7231V12.5749L0.000706937 12.5742Z" fill="#1E92FF"/>
<path d="M17.0915 21.7064C23.0855 21.7064 27.9447 16.8473 27.9447 10.8532C27.9447 4.85914 23.0855 0 17.0915 0C11.0974 0 6.23828 4.85914 6.23828 10.8532C6.23828 16.8473 11.0974 21.7064 17.0915 21.7064Z" fill="#FA5E00"/>
<path d="M42.2119 13.4375H47.3386V38.8637H42.2119V13.4375Z" fill="#333333"/>
<path d="M50.7891 29.6466C50.7891 24.0948 54.8979 20.1543 60.5176 20.1543C66.1373 20.1543 70.2122 24.0948 70.2122 29.6466C70.2122 35.1984 66.1366 39.1389 60.5176 39.1389C54.8986 39.1389 50.7891 35.1984 50.7891 29.6466ZM65.0197 29.6466C65.0197 26.4594 63.081 24.5404 60.5176 24.5404C57.9543 24.5404 55.9823 26.4594 55.9823 29.6466C55.9823 32.8338 57.9543 34.7528 60.5176 34.7528C63.081 34.7528 65.0197 32.8338 65.0197 29.6466Z" fill="#333333"/>
<path d="M84.6098 20.1543V25.0893C84.1826 25.0546 83.8537 25.0207 83.459 25.0207C80.6332 25.0207 78.7595 26.6306 78.7595 30.1608V38.8652H73.6328V20.4295H78.5296V22.8619C79.7788 21.0802 81.8816 20.155 84.6098 20.155V20.1543Z" fill="#333333"/>
<path d="M104.724 31.1534H91.3474C91.8404 33.4494 93.7141 34.8541 96.4083 34.8541C98.2813 34.8541 99.6295 34.2713 100.845 33.0716L103.572 36.1556C101.929 38.1092 99.464 39.137 96.2768 39.137C90.1634 39.137 86.1875 35.1278 86.1875 29.6447C86.1875 24.1275 90.2299 20.1523 95.619 20.1523C100.812 20.1523 104.821 23.7852 104.821 29.7133C104.821 30.1249 104.755 30.7071 104.723 31.1527L104.724 31.1534ZM91.2817 28.0348H99.9902C99.6288 25.7049 97.9524 24.1968 95.6522 24.1968C93.3187 24.1968 91.6431 25.6702 91.2817 28.0348Z" fill="#333333"/>
<path d="M138.117 28.3098V38.8645H132.99V29.1324C132.99 26.151 131.708 24.7809 129.638 24.7809C127.338 24.7809 125.727 26.3229 125.727 29.6119V38.8645H120.6V29.1324C120.6 26.151 119.385 24.7809 117.248 24.7809C114.981 24.7809 113.371 26.3229 113.371 29.6119V38.8645H108.244V20.4287H113.141V22.5536C114.455 20.9769 116.427 20.1543 118.695 20.1543C121.16 20.1543 123.263 21.1481 124.513 23.1703C125.926 21.2853 128.226 20.1543 130.888 20.1543C135.095 20.1543 138.119 22.6901 138.119 28.3098H138.117Z" fill="#333333"/>
<path d="M142.721 13.4375H147.847V38.8637H142.721V13.4375Z" fill="#333333"/>
<path d="M151.299 29.6466C151.299 24.0948 155.408 20.1543 161.027 20.1543C166.647 20.1543 170.722 24.0948 170.722 29.6466C170.722 35.1984 166.646 39.1389 161.027 39.1389C155.408 39.1389 151.299 35.1984 151.299 29.6466ZM165.53 29.6466C165.53 26.4594 163.591 24.5404 161.027 24.5404C158.464 24.5404 156.492 26.4594 156.492 29.6466C156.492 32.8338 158.464 34.7528 161.027 34.7528C163.591 34.7528 165.53 32.8338 165.53 29.6466Z" fill="#333333"/>
<path d="M192.381 20.4275V35.7793C192.381 42.6326 188.832 45.7851 182.457 45.7851C179.105 45.7851 175.851 44.9285 173.78 43.2493L175.818 39.4114C177.33 40.6789 179.795 41.5015 182.062 41.5015C185.677 41.5015 187.255 39.7877 187.255 36.464V35.676C185.908 37.2187 183.968 37.972 181.668 37.972C176.771 37.972 172.828 34.4424 172.828 29.0625C172.828 23.6826 176.771 20.1523 181.668 20.1523C184.133 20.1523 186.17 21.0096 187.519 22.7907V20.4261H192.382L192.381 20.4275ZM187.32 29.0632C187.32 26.3563 185.382 24.5392 182.687 24.5392C179.992 24.5392 178.02 26.3556 178.02 29.0632C178.02 31.7709 179.992 33.5866 182.687 33.5866C185.382 33.5866 187.32 31.7709 187.32 29.0632Z" fill="#333333"/>
<path d="M195.835 29.6466C195.835 24.0948 199.943 20.1543 205.563 20.1543C211.182 20.1543 215.257 24.0948 215.257 29.6466C215.257 35.1984 211.182 39.1389 205.563 39.1389C199.944 39.1389 195.835 35.1984 195.835 29.6466ZM210.065 29.6466C210.065 26.4594 208.126 24.5404 205.563 24.5404C202.999 24.5404 201.027 26.4594 201.027 29.6466C201.027 32.8338 202.999 34.7528 205.563 34.7528C208.126 34.7528 210.065 32.8338 210.065 29.6466Z" fill="#333333"/>
</svg>
