<svg width="77" height="83" viewBox="0 0 77 83" fill="none" xmlns="http://www.w3.org/2000/svg">
<path d="M72.6245 32.5688L66.6665 26.6108C58.7738 33.3077 48.3429 36.6774 38.1967 35.738C28.5719 34.8951 19.5307 30.1886 13.4969 22.8418L0 36.3387C5.30437 41.0036 11.4895 44.5928 18.0388 46.816C37.0558 53.5403 59.5958 47.8386 72.6245 32.5698V32.5688Z" fill="#FA5E00"/>
<path d="M58.3553 58.5367C39.3382 51.8123 16.7982 57.514 3.77051 72.7829L9.72858 78.7409C17.6213 72.044 28.0522 68.6743 38.1983 69.6137C47.8231 70.4566 56.8643 75.1631 62.8981 82.5099L76.395 69.013C71.0907 64.3481 64.9055 60.7589 58.3562 58.5357L58.3553 58.5367Z" fill="#FA5E00"/>
<path d="M38.1981 24.941C45.0851 24.941 50.6686 19.3576 50.6686 12.4705C50.6686 5.58344 45.0851 0 38.1981 0C31.311 0 25.7275 5.58344 25.7275 12.4705C25.7275 19.3576 31.311 24.941 38.1981 24.941Z" fill="#FA5E00"/>
</svg>
