<svg width="174" height="79" viewBox="0 0 174 79" fill="none" xmlns="http://www.w3.org/2000/svg">
<path d="M93.9209 0.867909H98.7376V17.7578H112.94V21.6826H93.9209V0.867909Z" fill="#333333"/>
<path d="M127.002 20.6412C125.267 19.7094 123.909 18.426 122.928 16.7901C121.946 15.1549 121.456 13.3161 121.456 11.2742C121.456 9.23243 121.946 7.39357 122.928 5.75838C123.91 4.1232 125.267 2.83976 127.002 1.90733C128.736 0.975618 130.684 0.509766 132.845 0.509766C135.006 0.509766 136.948 0.97634 138.672 1.90733C140.398 2.83903 141.755 4.12248 142.746 5.75838C143.737 7.39429 144.233 9.23315 144.233 11.2742C144.233 13.3153 143.738 15.1549 142.746 16.7901C141.754 18.426 140.397 19.7094 138.672 20.6412C136.948 21.5736 135.005 22.0387 132.845 22.0387C130.684 22.0387 128.736 21.5729 127.002 20.6412ZM136.175 17.0877C137.167 16.5229 137.944 15.7349 138.509 14.7237C139.074 13.7133 139.356 12.5635 139.356 11.275C139.356 9.98646 139.073 8.83663 138.509 7.82548C137.944 6.81432 137.166 6.02634 136.175 5.46154C135.183 4.89674 134.074 4.61433 132.845 4.61433C131.615 4.61433 130.505 4.89674 129.514 5.46154C128.523 6.02634 127.745 6.81432 127.18 7.82548C126.615 8.83591 126.333 9.98646 126.333 11.275C126.333 12.5635 126.615 13.7133 127.18 14.7237C127.745 15.7349 128.523 16.5229 129.514 17.0877C130.505 17.6525 131.615 17.9349 132.845 17.9349C134.074 17.9349 135.183 17.6525 136.175 17.0877Z" fill="#333333"/>
<path d="M166.177 21.6826L162.163 15.8843H157.733V21.6826H152.916V0.867188H161.925C163.769 0.867188 165.37 1.17487 166.728 1.78878C168.086 2.40342 169.131 3.27518 169.865 4.40551C170.598 5.53511 170.966 6.87345 170.966 8.4198C170.966 9.96615 170.594 11.2994 169.851 12.4189C169.108 13.5391 168.052 14.3965 166.684 14.9916L171.352 21.6818H166.178L166.177 21.6826ZM164.958 5.7294C164.204 5.10465 163.104 4.79264 161.657 4.79264H157.732V12.0484H161.657C163.103 12.0484 164.204 11.7313 164.958 11.0972C165.711 10.4631 166.088 9.57107 166.088 8.42124C166.088 7.25191 165.711 6.35488 164.958 5.73013V5.7294Z" fill="#333333"/>
<path d="M110.038 46.0866V49.9521H93.9209V29.1367H109.651V33.0022H98.708V37.5221H108.372V41.2691H98.708V46.0859H110.037L110.038 46.0866Z" fill="#333333"/>
<path d="M140.056 49.9528L140.026 37.4636L133.9 47.7521H131.73L125.633 37.7308V49.9521H121.113V29.1367H125.098L132.89 42.0716L140.561 29.1367H144.516L144.575 49.9521H140.056V49.9528Z" fill="#333333"/>
<path d="M154.507 29.1374H159.323V46.0274H169.76V49.9521H154.506V29.1367L154.507 29.1374Z" fill="#333333"/>
<path d="M98.1578 77.1822C96.4229 76.2505 95.0651 74.967 94.0843 73.3311C93.1027 71.6959 92.6123 69.8571 92.6123 67.8153C92.6123 65.7734 93.1027 63.9346 94.0843 62.2994C95.0658 60.6635 96.4229 59.3808 98.1578 58.4483C99.8919 57.5166 101.84 57.0508 104.001 57.0508C106.162 57.0508 108.104 57.5174 109.829 58.4483C111.553 59.38 112.911 60.6635 113.902 62.2994C114.893 63.9353 115.389 65.7742 115.389 67.8153C115.389 69.8564 114.893 71.6959 113.902 73.3311C112.911 74.967 111.553 76.2505 109.829 77.1822C108.104 78.1146 106.161 78.5797 104.001 78.5797C101.841 78.5797 99.8919 78.1139 98.1578 77.1822ZM107.331 73.6287C108.322 73.0639 109.101 72.2759 109.665 71.2647C110.23 70.2543 110.513 69.1045 110.513 67.816C110.513 66.5275 110.23 65.3776 109.665 64.3665C109.101 63.3553 108.322 62.5674 107.331 62.0026C106.339 61.4378 105.229 61.1554 104.001 61.1554C102.772 61.1554 101.661 61.4378 100.67 62.0026C99.6788 62.5674 98.901 63.3553 98.3362 64.3665C97.7714 65.3769 97.489 66.5275 97.489 67.816C97.489 69.1045 97.7714 70.2543 98.3362 71.2647C98.901 72.2759 99.6788 73.0639 100.67 73.6287C101.661 74.1935 102.772 74.4759 104.001 74.4759C105.23 74.4759 106.339 74.1935 107.331 73.6287Z" fill="#333333"/>
<path d="M138.138 67.4881H142.539V75.9327C141.409 76.7849 140.1 77.4393 138.614 77.895C137.127 78.3508 135.629 78.579 134.124 78.579C131.963 78.579 130.02 78.1182 128.296 77.1966C126.57 76.275 125.218 74.9959 124.237 73.3607C123.255 71.7255 122.765 69.8773 122.765 67.8153C122.765 65.7532 123.255 63.905 124.237 62.2691C125.218 60.6332 126.58 59.3548 128.325 58.4332C130.07 57.5116 132.032 57.0508 134.213 57.0508C136.037 57.0508 137.692 57.3585 139.179 57.9724C140.666 58.587 141.914 59.479 142.926 60.6491L139.833 63.5034C138.346 61.9376 136.552 61.1546 134.451 61.1546C133.123 61.1546 131.943 61.4327 130.912 61.9874C129.881 62.5428 129.078 63.3257 128.504 64.3369C127.928 65.348 127.641 66.5073 127.641 67.816C127.641 69.1045 127.928 70.2543 128.504 71.2647C129.079 72.2759 129.877 73.0639 130.897 73.6287C131.918 74.1935 133.083 74.4759 134.391 74.4759C135.778 74.4759 137.027 74.1783 138.138 73.5839V67.4881Z" fill="#333333"/>
<path d="M156.292 77.1822C154.556 76.2505 153.199 74.967 152.218 73.3311C151.237 71.6959 150.746 69.8571 150.746 67.8153C150.746 65.7734 151.237 63.9346 152.218 62.2994C153.2 60.6642 154.557 59.3808 156.292 58.4483C158.026 57.5166 159.974 57.0508 162.135 57.0508C164.296 57.0508 166.238 57.5174 167.962 58.4483C169.688 59.38 171.045 60.6635 172.036 62.2994C173.028 63.9353 173.523 65.7742 173.523 67.8153C173.523 69.8564 173.028 71.6959 172.036 73.3311C171.044 74.967 169.687 76.2505 167.962 77.1822C166.238 78.1146 164.295 78.5797 162.135 78.5797C159.974 78.5797 158.026 78.1139 156.292 77.1822ZM165.465 73.6287C166.457 73.0639 167.234 72.2759 167.799 71.2647C168.364 70.2543 168.646 69.1045 168.646 67.816C168.646 66.5275 168.363 65.3776 167.799 64.3665C167.234 63.3553 166.456 62.5674 165.465 62.0026C164.474 61.4378 163.364 61.1554 162.135 61.1554C160.905 61.1554 159.795 61.4378 158.804 62.0026C157.813 62.5674 157.035 63.3553 156.471 64.3665C155.905 65.3769 155.623 66.5275 155.623 67.816C155.623 69.1045 155.906 70.2543 156.471 71.2647C157.036 72.2759 157.813 73.0639 158.804 73.6287C159.795 74.1935 160.905 74.4759 162.135 74.4759C163.364 74.4759 164.473 74.1935 165.465 73.6287Z" fill="#333333"/>
<path d="M0 0C0 21.6987 17.5905 39.2892 39.2892 39.2892V0H0Z" fill="#1E92FF"/>
<path d="M0 39.2891C0 60.9877 17.5905 78.5782 39.2892 78.5782V39.2891H0Z" fill="#EC439D"/>
<path d="M39.2891 0C39.2891 21.6987 56.8796 39.2892 78.5782 39.2892V0H39.2891Z" fill="#FA5E00"/>
<path d="M39.2891 39.2891C39.2891 60.9877 56.8796 78.5782 78.5782 78.5782V39.2891H39.2891Z" fill="#7D4DFF"/>
</svg>
