<svg width="75" height="77" viewBox="0 0 75 77" fill="none" xmlns="http://www.w3.org/2000/svg">
<path d="M40.6152 61.0129V72.2113C40.6152 74.8564 42.9788 76.7845 45.4473 76.1927C61.9264 72.2412 74.2177 56.8323 74.2177 38.4215C74.2177 36.8657 74.1282 35.3314 73.9564 33.8245C73.5711 30.4492 69.598 29.0461 67.2965 31.4502L41.763 58.1208C41.0281 58.888 40.6152 59.9284 40.6152 61.0141V61.0129Z" fill="#37B557"/>
<path d="M32.1352 0.0124787C29.1775 0.427678 26.332 1.20678 23.6379 2.30562C22.7789 2.6552 22.5486 3.81609 23.2001 4.49615L31.4241 13.0853C32.2283 13.9252 33.6027 13.3299 33.6027 12.1427V1.33205C33.6027 0.517163 32.9095 -0.0960934 32.1352 0.0124787Z" fill="#37B557"/>
<path d="M43.9237 45.5032L68.1687 20.1785C68.807 19.5115 68.943 18.4938 68.4646 17.704C66.9004 15.1257 65.0535 12.755 62.9692 10.6372C60.7715 8.40494 57.1552 8.44432 54.9885 10.7076L41.1951 25.1155C40.8228 25.5045 40.6152 26.0211 40.6152 26.5603V44.0715C40.6152 45.8754 42.7032 46.7786 43.9237 45.5032Z" fill="#37B557"/>
<path d="M33.0227 25.1166L19.2293 10.7087C17.0626 8.44657 13.4463 8.40719 11.2486 10.6383C9.16427 12.756 7.31734 15.1267 5.75319 17.705C5.27476 18.4937 5.41077 19.5126 6.04908 20.1795L30.2941 45.5043C31.5146 46.7797 33.6025 45.8765 33.6025 44.0725V26.5614C33.6025 26.0233 33.3949 25.5055 33.0227 25.1166Z" fill="#37B557"/>
<path d="M40.6152 1.33205V12.1427C40.6152 13.3299 41.9897 13.9252 42.7938 13.0853L51.0179 4.49615C51.6693 3.81489 51.439 2.6552 50.58 2.30562C47.886 1.20678 45.0404 0.427678 42.0828 0.0124787C41.3096 -0.0960934 40.6152 0.517163 40.6152 1.33205Z" fill="#37B557"/>
<path d="M32.4547 58.1191L6.92118 31.4486C4.61969 29.0445 0.647855 30.4464 0.261291 33.8228C0.0894846 35.3297 0 36.8641 0 38.4199C0 56.8318 12.2913 72.2395 28.7704 76.191C31.2389 76.7828 33.6025 74.8559 33.6025 72.2096V61.0112C33.6025 59.9267 33.1897 58.8863 32.4547 58.1191Z" fill="#37B557"/>
</svg>
