<svg width="114" height="36" viewBox="0 0 114 36" fill="none" xmlns="http://www.w3.org/2000/svg">
<path d="M108.756 13.2612H113.987C113.325 8.2956 109.607 5.68555 104.439 5.68555C99.209 5.68555 95.7115 8.39114 95.7115 13.0384C95.7115 18.3222 100.217 19.4998 102.612 19.9774C105.7 20.5821 108.725 20.6458 108.725 23.3194C108.725 25.1338 107.212 26.025 105.07 26.025C102.423 26.025 100.659 24.6882 100.217 22.2692H95.0498C95.3648 27.4893 99.1146 30.2903 104.629 30.2903C109.733 30.2903 113.924 27.935 113.924 22.8421C113.924 17.3672 109.103 16.3805 105.731 15.8712C103.431 15.5211 100.91 15.2028 100.91 12.7518C100.91 11.033 102.202 9.98268 104.376 9.98268C106.897 9.98268 108.41 11.4151 108.756 13.2612Z" fill="#333333"/>
<path d="M92.1833 6.48047H87.2363V29.5573H92.1833V6.48047Z" fill="#333333"/>
<path d="M72.301 21.5051H78.7605C77.7521 23.988 75.4834 25.1655 72.8681 25.1655C68.2679 25.1655 66.1253 21.5688 66.1253 18.0038C66.1253 14.4069 68.1418 10.7465 72.8367 10.7465C75.704 10.7465 77.8465 12.0834 78.6658 14.4706L83.9908 14.4706C83.0772 9.09144 78.4138 6.00391 72.8998 6.00391C66.0938 6.00391 60.9893 10.6828 60.9893 18.0675C60.9893 25.5476 66.5348 29.972 72.8681 29.972C79.107 29.972 83.9908 25.8659 83.9908 19.4362V17.5582H72.301V21.5051Z" fill="#333333"/>
<path d="M49.6767 6.00391C44.0051 6.00391 39.8144 9.60063 39.8459 15.5847H44.9504C44.8873 12.9747 46.5257 10.5874 49.4246 10.5874C51.9454 10.5874 53.4263 12.3699 53.4263 14.4069C53.4263 16.4441 51.9454 17.59 49.204 18.8315C45.4544 20.5184 42.7763 21.6006 40.0349 22.5556V29.5582H59.1295V24.8473H46.0209C46.0209 24.8473 46.0645 24.8335 46.086 24.827C48.3156 24.1445 49.9906 23.403 51.9769 22.5237C56.2306 20.614 58.6568 18.2266 58.6568 14.1524C58.6568 9.15498 55.0018 6.00391 49.6767 6.00391Z" fill="#333333"/>
<path d="M26.4234 21.4414C19.9955 21.4732 18.9557 25.3883 18.6092 28.6986L18.4517 30.1628H17.1597L17.0022 28.6986C16.6557 25.3883 15.5844 21.4732 9.37699 21.4414C8.33722 19.2768 7.89609 17.5262 7.89609 15.5527C7.89609 10.6191 11.8978 6.00361 17.8214 6.00361C23.7451 6.00361 27.6837 10.5871 27.6837 15.5847C27.6838 17.5262 27.4947 19.2768 26.4234 21.4414ZM17.7585 0.0195312C7.9907 0.0195312 -0.0126953 8.10447 -0.0126953 18.0035C-0.0126953 27.9347 7.9907 36.0195 17.7585 36.0195C27.6207 36.0195 35.5926 27.9347 35.5926 18.0035C35.5926 8.1045 27.6207 0.0195312 17.7585 0.0195312Z" fill="#29B24A"/>
</svg>
