<svg width="118" height="40" viewBox="0 0 118 40" fill="none" xmlns="http://www.w3.org/2000/svg">
<path d="M50.2153 20.5126C50.2153 26.0648 45.8814 30.1561 40.5627 30.1561C35.2441 30.1561 30.9102 26.0648 30.9102 20.5126C30.9102 14.9213 35.2441 10.8691 40.5627 10.8691C45.8814 10.8691 50.2153 14.9213 50.2153 20.5126ZM45.9899 20.5126C45.9899 17.0431 43.478 14.6691 40.5627 14.6691C37.6474 14.6691 35.1356 17.0431 35.1356 20.5126C35.1356 23.9474 37.6474 26.3561 40.5627 26.3561C43.478 26.3561 45.9899 23.9431 45.9899 20.5126Z" fill="#EA4335"/>
<path d="M71.0385 20.5126C71.0385 26.0648 66.7046 30.1561 61.386 30.1561C56.0673 30.1561 51.7334 26.0648 51.7334 20.5126C51.7334 14.9257 56.0673 10.8691 61.386 10.8691C66.7046 10.8691 71.0385 14.9213 71.0385 20.5126ZM66.8131 20.5126C66.8131 17.0431 64.3013 14.6691 61.386 14.6691C58.4707 14.6691 55.9588 17.0431 55.9588 20.5126C55.9588 23.9474 58.4707 26.3561 61.386 26.3561C64.3013 26.3561 66.8131 23.9431 66.8131 20.5126Z" fill="#FBBC05"/>
<path d="M90.995 11.4517V28.7648C90.995 35.8865 86.8043 38.7952 81.85 38.7952C77.1864 38.7952 74.3796 35.6691 73.321 33.1126L76.9999 31.5778C77.6549 33.1474 79.2601 34.9996 81.8457 34.9996C85.0169 34.9996 86.9821 33.0387 86.9821 29.3474V27.9604H86.8346C85.8889 29.13 84.0668 30.1517 81.7676 30.1517C76.9565 30.1517 72.5488 25.9517 72.5488 20.5474C72.5488 15.1039 76.9565 10.8691 81.7676 10.8691C84.0625 10.8691 85.8846 11.8909 86.8346 13.0257H86.9821V11.4561H90.995V11.4517ZM87.2815 20.5474C87.2815 17.1517 85.0213 14.6691 82.145 14.6691C79.2297 14.6691 76.7873 17.1517 76.7873 20.5474C76.7873 23.9083 79.2297 26.3561 82.145 26.3561C85.0213 26.3561 87.2815 23.9083 87.2815 20.5474Z" fill="#4285F4"/>
<path d="M97.6106 1.30469V29.5656H93.4893V1.30469H97.6106Z" fill="#34A853"/>
<path d="M113.671 23.687L116.95 25.8783C115.892 27.4478 113.341 30.1522 108.933 30.1522C103.467 30.1522 99.3848 25.9174 99.3848 20.5087C99.3848 14.7739 103.502 10.8652 108.46 10.8652C113.454 10.8652 115.896 14.8478 116.694 17L117.132 18.0957L104.27 23.4348C105.254 25.3696 106.786 26.3565 108.933 26.3565C111.085 26.3565 112.577 25.2957 113.671 23.687ZM103.576 20.2174L112.174 16.6391C111.701 15.4348 110.278 14.5957 108.604 14.5957C106.456 14.5957 103.467 16.4957 103.576 20.2174Z" fill="#EA4335"/>
<path d="M15.3097 18.0051V13.9138H29.0662C29.2007 14.6268 29.2701 15.4703 29.2701 16.3833C29.2701 19.4529 28.4329 23.2486 25.7345 25.9529C23.1099 28.692 19.7564 30.1529 15.314 30.1529C7.08007 30.1529 0.15625 23.4312 0.15625 15.179C0.15625 6.92682 7.08007 0.205078 15.314 0.205078C19.8692 0.205078 23.1142 1.99638 25.5523 4.33116L22.6717 7.21812C20.9234 5.57464 18.5547 4.29638 15.3097 4.29638C9.29691 4.29638 4.59426 9.1529 4.59426 15.179C4.59426 21.2051 9.29691 26.0616 15.3097 26.0616C19.2098 26.0616 21.431 24.492 22.8539 23.0659C24.0079 21.9094 24.7671 20.2573 25.0664 18.0007L15.3097 18.0051Z" fill="#4285F4"/>
</svg>
