<svg width="183" height="38" viewBox="0 0 183 38" fill="none" xmlns="http://www.w3.org/2000/svg">
<path d="M20.1645 38C30.6651 38 39.1776 29.4934 39.1776 19C39.1776 8.50659 30.6651 0 20.1645 0C9.66382 0 1.15137 8.50659 1.15137 19C1.15137 29.4934 9.66382 38 20.1645 38Z" fill="#CE2457"/>
<path fill-rule="evenodd" clip-rule="evenodd" d="M19.2273 7.57243C13.3327 8.05414 8.69922 12.9874 8.69922 19.0021C8.69922 25.336 13.8373 30.4705 20.1754 30.4705C26.5135 30.4705 31.6517 25.336 31.6517 19.0021C31.6517 12.9867 27.0172 8.05305 21.1216 7.57227L20.8124 15.105C22.6916 15.4093 24.1263 17.0384 24.1263 19.0021C24.1263 21.1827 22.3574 22.9505 20.1754 22.9505C17.9933 22.9505 16.2244 21.1827 16.2244 19.0021C16.2244 17.039 17.6582 15.4105 19.5365 15.1054L19.2273 7.57243Z" fill="white"/>
<path d="M20.1627 6.76917C21.5307 6.76917 22.6398 5.66089 22.6398 4.29376C22.6398 2.92664 21.5307 1.81836 20.1627 1.81836C18.7946 1.81836 17.6855 2.92664 17.6855 4.29376C17.6855 5.66089 18.7946 6.76917 20.1627 6.76917Z" fill="white"/>
<path d="M65.0724 18.9951C65.0724 21.612 64.1145 23.7256 62.3052 25.4368C60.4958 27.1479 58.2607 27.953 55.5998 27.953C52.9389 27.953 50.8102 27.1479 48.8944 25.4368C47.1914 23.7256 46.2334 21.612 46.2334 18.9951C46.2334 16.3781 47.1914 14.2645 49.0007 12.5534C50.8102 10.8423 53.0453 10.0371 55.5998 10.0371C58.1542 10.0371 60.4958 10.8423 62.3052 12.5534C64.1145 14.2645 65.0724 16.3781 65.0724 18.9951ZM61.5601 18.9951C61.5601 17.4853 61.0279 16.1768 59.8572 15.1703C58.7928 14.1638 57.3028 13.6605 55.5998 13.6605C53.8968 13.6605 52.5132 14.1638 51.3423 15.1703C50.1716 16.1768 49.6393 17.4853 49.6393 18.9951C49.6393 20.5049 50.1716 21.8133 51.3423 22.8198C52.4067 23.8263 53.8968 24.3296 55.5998 24.3296C57.3028 24.3296 58.7928 23.8263 59.8572 22.8198C61.0279 21.8133 61.5601 20.5049 61.5601 18.9951Z" fill="black"/>
<path d="M76.3086 27.1513H72.3705V13.9658H66.3037V10.8457H82.2689V13.9658H76.3086V27.1513Z" fill="black"/>
<path d="M91.0891 27.558C88.3219 27.558 86.0867 27.1554 84.2773 26.3502V23.1293C86.2996 24.0351 88.4282 24.4378 90.557 24.4378C92.1535 24.4378 93.3243 24.2365 94.2822 23.8339C95.1336 23.4313 95.6659 22.8273 95.6659 22.1228C95.6659 20.7137 94.3887 20.1097 91.7278 20.1097H88.4282V17.1909H91.7278C93.9629 17.1909 95.0273 16.587 95.0273 15.3792C95.0273 14.0707 93.5371 13.4667 90.6634 13.4667C88.7475 13.4667 86.8317 13.8694 84.8095 14.6747V11.5544C86.6189 10.8499 88.854 10.4473 91.5149 10.4473C93.6436 10.4473 95.4531 10.8499 96.9431 11.6551C98.3268 12.4603 99.0718 13.5674 99.0718 14.7753C99.0718 16.587 98.1139 17.7948 96.3045 18.3987C98.5396 19.1032 99.7104 20.4117 99.7104 22.4248C99.7104 23.9346 98.9654 25.2429 97.3689 26.1489C95.7724 27.1554 93.6436 27.558 91.0891 27.558Z" fill="black"/>
<path d="M121.186 18.9951C121.186 21.612 120.229 23.7256 118.419 25.4368C116.61 27.1479 114.375 27.953 111.714 27.953C109.053 27.953 106.924 27.1479 105.008 25.4368C103.199 23.7256 102.241 21.612 102.241 18.9951C102.241 16.3781 103.199 14.2645 105.008 12.5534C106.924 10.8423 109.159 10.0371 111.82 10.0371C114.481 10.0371 116.716 10.8423 118.526 12.5534C120.229 14.2645 121.186 16.3781 121.186 18.9951ZM117.781 18.9951C117.781 17.4853 117.249 16.1768 116.078 15.1703C115.013 14.1638 113.523 13.6605 111.82 13.6605C110.117 13.6605 108.734 14.1638 107.563 15.1703C106.392 16.1768 105.86 17.4853 105.86 18.9951C105.86 20.5049 106.392 21.8133 107.563 22.8198C108.627 23.8263 110.117 24.3296 111.82 24.3296C113.523 24.3296 115.013 23.8263 116.078 22.8198C117.142 21.8133 117.781 20.5049 117.781 18.9951Z" fill="black"/>
<path d="M135.023 27.1513H124.699V10.8457H134.491C136.194 10.8457 137.577 11.2483 138.642 11.9529C139.706 12.6575 140.132 13.7646 140.132 14.9724C140.132 15.7776 139.919 16.4822 139.493 17.0861C139.067 17.69 138.535 18.1932 137.79 18.4952C140.132 19.0991 141.302 20.5083 141.302 22.7226C141.302 24.1317 140.77 25.2388 139.599 26.044C138.535 26.7486 137.045 27.1513 135.023 27.1513ZM128.637 13.7646V17.388H133.533C134.384 17.388 135.023 17.1867 135.554 16.8848C135.981 16.5829 136.3 16.0796 136.3 15.5763C136.3 14.3685 135.449 13.7646 133.639 13.7646H128.637ZM128.637 20.2063V24.2324H134.278C135.236 24.2324 135.874 24.031 136.406 23.7291C136.939 23.3264 137.152 22.9239 137.152 22.2193C137.152 21.6154 136.939 21.1121 136.406 20.7095C135.874 20.307 135.129 20.2063 134.278 20.2063H128.637Z" fill="black"/>
<path d="M148.644 27.1415H144.919V10.8359H148.857V21.9076L158.543 10.8359H162.268V27.1415H158.33V16.0698L148.644 27.1415Z" fill="black"/>
<path d="M170.301 27.1415H166.363V10.8359H170.301V27.1415Z" fill="black"/>
<path d="M174.456 18.6877L182.345 27.0417H177.252L169.761 18.889L176.753 10.9375H181.646L174.456 18.6877Z" fill="black"/>
</svg>
