<svg width="240" height="36" viewBox="0 0 240 36" fill="none" xmlns="http://www.w3.org/2000/svg">
<path d="M107.647 29.4882V25.9598C106.287 26.8692 104.009 27.6694 101.878 27.6694C98.6817 27.6694 97.4692 26.178 97.2855 23.1225H107.83V20.8309C107.83 14.4652 105.001 12.0645 100.629 12.0645C95.3015 12.0645 92.7664 16.1021 92.7664 21.6311C92.7664 27.9968 95.9261 31.0887 101.511 31.0887C104.303 31.0887 106.361 30.3612 107.647 29.4882ZM134.982 31.0887C137.003 31.0887 138.436 30.7249 139.501 29.9611V26.4327C138.399 27.1965 137.076 27.6694 135.239 27.6694C132.116 27.6694 130.83 25.2687 130.83 21.4856C130.83 17.5207 132.41 15.4837 135.276 15.4837C136.966 15.4837 138.619 16.0657 139.501 16.6114V12.9375C138.582 12.4282 136.966 12.0645 134.798 12.0645C129.214 12.0645 126.311 16.0294 126.311 21.5948C126.311 27.7058 129.14 31.0887 134.982 31.0887ZM67.5988 12.4282V19.6669H61.7569V12.4282H57.3848V30.7249H61.7569V23.0861H67.5988V30.7249H71.971V12.4282H67.5988ZM91.7009 27.3057H89.7536V12.4282H77.0045V13.9923C77.0045 18.4665 76.7106 24.2502 75.1674 27.3057H73.808V34.9081H77.8495V30.7249H87.6594V34.9081H91.7009V27.3057ZM121.608 30.7249H126.568L119.551 20.8673L125.723 12.4282H121.314L115.142 20.8673V12.4282H110.77V30.7249H115.142V21.7403L121.608 30.7249ZM100.555 15.4837C102.723 15.4837 103.385 17.2661 103.385 19.5577V19.9215H97.2855C97.3958 17.0115 98.4613 15.4837 100.555 15.4837ZM85.3814 27.3057H79.2089C80.4214 24.5412 80.7521 19.5577 80.7521 16.3931V15.8475H85.3814V27.3057Z" fill="#333333"/>
<path d="M162.328 30.7339H167.508L158.396 17.4206L166.92 5.45312H162.511L154.244 17.0932V5.45312H149.799V30.7339H154.244V18.8756L162.328 30.7339Z" fill="#333333"/>
<path d="M182.364 18.2536C182.364 13.8158 180.086 12.1426 175.457 12.1426C172.554 12.1426 170.276 13.052 168.954 13.8158V17.417C170.129 16.544 172.701 15.5982 174.942 15.5982C177.037 15.5982 177.992 16.3257 177.992 18.29V19.3085H177.294C170.607 19.3085 167.631 21.491 167.631 25.2013C167.631 28.9116 169.909 30.9849 173.289 30.9849C175.861 30.9849 176.963 30.1483 177.808 29.2753H177.992C178.029 29.7482 178.176 30.3666 178.323 30.7303H182.584C182.438 29.2389 182.364 27.7475 182.364 26.2562V18.2536ZM177.992 26.3653C177.441 27.1655 176.412 27.8203 174.869 27.8203C173.032 27.8203 172.113 26.729 172.113 25.0922C172.113 22.946 173.62 22.1821 177.367 22.1821H177.992V26.3653Z" fill="#333333"/>
<path d="M189.927 12.4282H185.886V35.9993H190.258V28.5788C191.36 30.2157 192.977 31.0887 194.851 31.0887C199.113 31.0887 202.052 27.7058 202.052 21.5584C202.052 15.4473 199.186 12.0645 195.071 12.0645C193.014 12.0645 191.323 13.0102 190.148 14.7926L189.927 12.4282ZM193.748 27.6694C191.434 27.6694 190.258 25.8143 190.258 21.5948C190.258 17.3389 191.507 15.4837 193.969 15.4837C196.357 15.4837 197.533 17.3389 197.533 21.5584C197.533 25.8143 196.283 27.6694 193.748 27.6694Z" fill="#333333"/>
<path d="M217.426 15.8568V12.4375H202.767V15.8568H207.91V30.7342H212.283V15.8568H217.426Z" fill="#333333"/>
<path d="M220.013 12.4375V30.7342H226.663C230.962 30.7342 234.011 28.5517 234.011 24.2594C234.011 20.1854 231.292 18.0393 226.736 18.0393H224.385V12.4375H220.013ZM235.628 12.4375V30.7342H240V12.4375H235.628ZM226.406 27.315H224.385V21.4586H226.516C228.39 21.4586 229.492 22.2952 229.492 24.4049C229.492 26.5147 228.279 27.315 226.406 27.315Z" fill="#333333"/>
<path d="M53.7078 30.7339H49.2621V8.87239H47.2781C43.6407 8.87239 41.7302 10.6912 41.7302 13.3829C41.7302 16.4384 43.0529 17.8571 45.7717 19.6758L48.0129 21.1672L41.5465 30.7339H36.7334L42.5385 22.1857C39.195 19.8213 37.3213 17.5297 37.3213 13.6375C37.3213 8.76327 40.7382 5.45312 47.2413 5.45312H53.7078V30.7339Z" fill="#333333"/>
<path d="M12.8587 0C10.3156 0.00128878 7.83001 0.7272 5.71581 2.08604C3.60161 3.44488 1.95366 5.37569 0.980108 7.63459C0.00655698 9.89349 -0.248917 12.3791 0.245955 14.7776C0.740827 17.176 1.96385 19.3796 3.76053 21.1101C6.09008 23.35 11.5724 26.5903 11.8968 29.9941C11.9454 30.5026 12.3299 30.9189 12.8587 30.9189C13.3874 30.9189 13.7733 30.5026 13.8205 29.9941C14.1449 26.5903 19.6229 23.3555 21.9511 21.1169C23.7498 19.3872 24.9749 17.1835 25.4714 14.7844C25.9678 12.3853 25.7134 9.89853 24.7403 7.63845C23.7671 5.37836 22.119 3.44642 20.0041 2.08682C17.8893 0.727225 15.4027 0.0010189 12.8587 0ZM12.8587 16.5987C12.2808 16.5987 11.7086 16.4892 11.1747 16.2766C10.6408 16.064 10.1557 15.7523 9.74708 15.3594C9.33846 14.9665 9.01433 14.5001 8.79319 13.9867C8.57204 13.4734 8.45822 12.9232 8.45822 12.3676C8.45822 11.8119 8.57204 11.2617 8.79319 10.7484C9.01433 10.2351 9.33846 9.76864 9.74708 9.37574C10.1557 8.98285 10.6408 8.67119 11.1747 8.45856C11.7086 8.24593 12.2808 8.13649 12.8587 8.13649C14.0257 8.13649 15.145 8.58226 15.9702 9.37574C16.7955 10.1692 17.2591 11.2454 17.2591 12.3676C17.2591 13.4897 16.7955 14.5659 15.9702 15.3594C15.145 16.1529 14.0257 16.5987 12.8587 16.5987Z" fill="#FF4433"/>
</svg>
