<svg width="13" height="18" viewBox="0 0 13 18" fill="none" xmlns="http://www.w3.org/2000/svg">
<path d="M6.5003 10.6276C8.60713 10.6276 10.3151 8.92646 10.3151 6.82801C10.3151 4.72957 8.60713 3.02844 6.5003 3.02844C4.39347 3.02844 2.68555 4.72957 2.68555 6.82801C2.68555 8.92646 4.39347 10.6276 6.5003 10.6276Z" fill="#50AEA3"/>
<path d="M6.5 0.85719C5.26501 0.854684 4.05945 1.23259 3.0485 1.93913C2.03755 2.64566 1.27068 3.64627 0.852941 4.80384C0.435206 5.96141 0.387051 7.21932 0.715074 8.40522C1.0431 9.59111 1.73125 10.647 2.68525 11.4281V16.5983C2.68469 16.6909 2.70825 16.7821 2.75361 16.8629C2.79898 16.9438 2.86461 17.0116 2.94411 17.0596C3.02296 17.109 3.11321 17.1374 3.20622 17.1422C3.29924 17.1469 3.39193 17.1279 3.47545 17.0868L6.5 15.5737L9.52456 17.0868C9.6019 17.1208 9.68525 17.1393 9.76979 17.1411C9.91432 17.1411 10.0529 17.0839 10.1551 16.9821C10.2573 16.8803 10.3148 16.7422 10.3148 16.5983V11.4281C11.2688 10.647 11.9569 9.59111 12.2849 8.40522C12.613 7.21932 12.5648 5.96141 12.1471 4.80384C11.7293 3.64627 10.9624 2.64566 9.9515 1.93913C8.94055 1.23259 7.73499 0.854684 6.5 0.85719ZM6.5 11.7131C5.52995 11.7131 4.58168 11.4266 3.7751 10.8898C2.96853 10.353 2.33989 9.59006 1.96866 8.69741C1.59744 7.80477 1.50031 6.82252 1.68956 5.87489C1.87881 4.92727 2.34593 4.05681 3.03187 3.37361C3.7178 2.69041 4.59173 2.22514 5.54314 2.03665C6.49456 1.84815 7.48073 1.9449 8.37694 2.31464C9.27316 2.68439 10.0392 3.31053 10.5781 4.11389C11.117 4.91725 11.4047 5.86175 11.4047 6.82794C11.4029 8.12302 10.8856 9.36453 9.96614 10.2803C9.04673 11.196 7.80025 11.7113 6.5 11.7131Z" fill="#50AEA3"/>
</svg>
