<svg width="16" height="14" viewBox="0 0 16 14" fill="none" xmlns="http://www.w3.org/2000/svg">
<path d="M14.72 2.54545H1.92C1.75026 2.54545 1.58748 2.47841 1.46745 2.35907C1.34743 2.23973 1.28 2.07787 1.28 1.90909C1.28 1.74032 1.34743 1.57846 1.46745 1.45911C1.58748 1.33977 1.75026 1.27273 1.92 1.27273H12.8C12.9697 1.27273 13.1325 1.20568 13.2525 1.08634C13.3726 0.966999 13.44 0.805138 13.44 0.636364C13.44 0.467589 13.3726 0.305728 13.2525 0.186387C13.1325 0.0670454 12.9697 0 12.8 0H1.92C1.41143 0.00209393 0.924296 0.203902 0.564682 0.561473C0.205067 0.919044 0.0021059 1.40341 0 1.90909V12.0909C0.0021059 12.5966 0.205067 13.081 0.564682 13.4385C0.924296 13.7961 1.41143 13.9979 1.92 14H14.72C15.0595 14 15.385 13.8659 15.6251 13.6272C15.8651 13.3885 16 13.0648 16 12.7273V3.81818C16 3.48063 15.8651 3.15691 15.6251 2.91823C15.385 2.67955 15.0595 2.54545 14.72 2.54545ZM11.84 9.22727C11.6501 9.22727 11.4645 9.17129 11.3067 9.0664C11.1488 8.96152 11.0257 8.81244 10.9531 8.63801C10.8804 8.46359 10.8614 8.27167 10.8984 8.0865C10.9355 7.90134 11.0269 7.73126 11.1612 7.59776C11.2954 7.46427 11.4665 7.37335 11.6527 7.33652C11.8389 7.29969 12.032 7.3186 12.2074 7.39084C12.3828 7.46309 12.5327 7.58544 12.6382 7.74241C12.7437 7.89938 12.8 8.08394 12.8 8.27273C12.8 8.52589 12.6989 8.76868 12.5188 8.94769C12.3388 9.1267 12.0946 9.22727 11.84 9.22727Z" fill="#50AEA3"/>
</svg>
