<svg width="14" height="14" viewBox="0 0 14 14" fill="none" xmlns="http://www.w3.org/2000/svg">
<path d="M14 5.38462V8.61539C14 8.901 13.8865 9.17492 13.6846 9.37688C13.4826 9.57885 13.2087 9.69231 12.9231 9.69231H9.69231V12.9231C9.69231 13.2087 9.57885 13.4826 9.37688 13.6846C9.17492 13.8865 8.901 14 8.61539 14H5.38462C5.099 14 4.82508 13.8865 4.62312 13.6846C4.42115 13.4826 4.30769 13.2087 4.30769 12.9231V9.69231H1.07692C0.791305 9.69231 0.517386 9.57885 0.315423 9.37688C0.113461 9.17492 0 8.901 0 8.61539V5.38462C0 5.099 0.113461 4.82508 0.315423 4.62312C0.517386 4.42115 0.791305 4.30769 1.07692 4.30769H4.30769V1.07692C4.30769 0.791305 4.42115 0.517386 4.62312 0.315423C4.82508 0.113461 5.099 0 5.38462 0H8.61539C8.901 0 9.17492 0.113461 9.37688 0.315423C9.57885 0.517386 9.69231 0.791305 9.69231 1.07692V4.30769H12.9231C13.2087 4.30769 13.4826 4.42115 13.6846 4.62312C13.8865 4.82508 14 5.099 14 5.38462Z" fill="#50AEA3"/>
</svg>
